<svg width="553" height="393" viewBox="0 0 553 393" fill="none" xmlns="http://www.w3.org/2000/svg">
    <path d="M274.519 0H151.311C141.646 0.0109192 132.38 3.84926 125.545 10.6729C118.711 17.4966 114.867 26.7484 114.856 36.3985V47.5179C114.603 47.4484 114.338 47.4386 114.08 47.4892C113.823 47.5397 113.581 47.6493 113.373 47.8093C113.166 47.9693 112.998 48.1753 112.884 48.4111C112.77 48.6468 112.712 48.9058 112.715 49.1677V57.7186C112.712 57.9804 112.77 58.2394 112.884 58.4752C112.998 58.7109 113.166 58.9169 113.373 59.0769C113.581 59.2369 113.823 59.3465 114.08 59.3971C114.338 59.4476 114.603 59.4378 114.856 59.3683V72.3155C114.603 72.246 114.338 72.2362 114.08 72.2867C113.823 72.3373 113.581 72.4469 113.373 72.6069C113.165 72.7669 112.998 72.9729 112.884 73.2086C112.769 73.4444 112.712 73.7034 112.715 73.9652V95.3425C112.712 95.6044 112.769 95.8634 112.884 96.0991C112.998 96.3349 113.165 96.5409 113.373 96.7009C113.581 96.8609 113.823 96.9705 114.08 97.021C114.338 97.0716 114.603 97.0617 114.856 96.9922V104.809C114.603 104.739 114.338 104.73 114.08 104.78C113.823 104.831 113.581 104.94 113.373 105.1C113.165 105.26 112.998 105.466 112.884 105.702C112.769 105.938 112.712 106.197 112.715 106.459V127.836C112.712 128.098 112.769 128.357 112.884 128.593C112.998 128.828 113.165 129.034 113.373 129.194C113.581 129.354 113.823 129.464 114.08 129.514C114.338 129.565 114.603 129.555 114.856 129.486V355.232C114.867 364.882 118.711 374.134 125.545 380.958C132.38 387.782 141.646 391.62 151.311 391.631H274.519C284.184 391.62 293.45 387.782 300.284 380.958C307.118 374.134 310.962 364.882 310.973 355.232V36.3985C310.962 26.7484 307.118 17.4966 300.284 10.6729C293.45 3.84926 284.184 0.0109192 274.519 0V0ZM303.266 355.232C303.257 362.842 300.226 370.138 294.836 375.519C289.447 380.9 282.14 383.926 274.519 383.935H151.311C143.689 383.926 136.382 380.9 130.993 375.519C125.604 370.138 122.572 362.842 122.564 355.232V36.3985C122.572 28.7887 125.604 21.4931 130.993 16.1122C136.382 10.7312 143.689 7.70444 151.311 7.6958H274.519C282.14 7.70443 289.447 10.7312 294.836 16.1122C300.226 21.4931 303.257 28.7887 303.266 36.3985V355.232Z" fill="#3F3D56"/>
    <path d="M274.518 388.21H151.31C142.553 388.2 134.158 384.722 127.966 378.54C121.774 372.358 118.291 363.975 118.281 355.232V36.3981C118.291 27.6548 121.774 19.2724 127.966 13.09C134.158 6.90751 142.553 3.42984 151.31 3.41992H274.518C283.275 3.42984 291.67 6.9075 297.862 13.0899C304.054 19.2724 307.537 27.6548 307.547 36.3981V355.232C307.537 363.975 304.054 372.358 297.862 378.54C291.67 384.722 283.275 388.2 274.518 388.21V388.21Z" fill="#E6E6E6"/>
    <path d="M277.562 383.08H148.265C142.359 383.073 136.697 380.728 132.52 376.558C128.344 372.388 125.995 366.735 125.988 360.838V30.7931C125.995 24.8962 128.344 19.2426 132.52 15.0728C136.697 10.903 142.359 8.55749 148.265 8.5508H165.127C166.103 8.55192 167.039 8.9396 167.729 9.6288C168.419 10.318 168.808 11.2524 168.809 12.2271C168.812 15.1064 169.959 17.8669 171.998 19.9029C174.037 21.9389 176.802 23.0841 179.686 23.0873H244.429C247.313 23.0841 250.077 21.9389 252.116 19.9029C254.156 17.8669 255.303 15.1064 255.306 12.2271C255.307 11.2524 255.695 10.318 256.385 9.62879C257.076 8.93959 258.011 8.5519 258.988 8.55078H277.562C283.468 8.55747 289.131 10.903 293.307 15.0728C297.483 19.2426 299.832 24.8961 299.839 30.7931V360.838C299.832 366.735 297.483 372.388 293.307 376.558C289.131 380.728 283.468 383.073 277.562 383.08V383.08Z" fill="white"/>
    <path d="M218.48 16.0336H203.064C202.61 16.0336 202.174 15.8535 201.853 15.5327C201.532 15.212 201.352 14.777 201.352 14.3235C201.352 13.8699 201.532 13.4349 201.853 13.1142C202.174 12.7935 202.61 12.6133 203.064 12.6133H218.48C218.934 12.6133 219.37 12.7935 219.691 13.1142C220.012 13.4349 220.193 13.8699 220.193 14.3235C220.193 14.777 220.012 15.212 219.691 15.5327C219.37 15.8535 218.934 16.0336 218.48 16.0336V16.0336Z" fill="white"/>
    <path d="M229.185 15.6047C229.658 15.6047 230.041 15.2219 230.041 14.7496C230.041 14.2774 229.658 13.8945 229.185 13.8945C228.712 13.8945 228.328 14.2774 228.328 14.7496C228.328 15.2219 228.712 15.6047 229.185 15.6047Z" fill="white"/>
    <path d="M304.004 75.3516H121.652V77.3003H304.004V75.3516Z" fill="#E6E6E6"/>
    <path d="M304.004 114.328H121.652V116.277H304.004V114.328Z" fill="#E6E6E6"/>
    <path d="M304.004 194.877H121.652V196.826H304.004V194.877Z" fill="#E6E6E6"/>
    <path d="M304.004 275.426H121.652V277.375H304.004V275.426Z" fill="#E6E6E6"/>
    <path d="M304.004 338.436H121.652V340.384H304.004V338.436Z" fill="#E6E6E6"/>
    <path d="M254.081 76.3262H252.129V195.85H254.081V76.3262Z" fill="#E6E6E6"/>
    <path d="M162.796 195.816H160.844V339.41H162.796V195.816Z" fill="#E6E6E6"/>
    <path d="M299.842 235.203H161.82V237.152H299.842V235.203Z" fill="#E6E6E6"/>
    <path d="M254.292 339.408H252.34V383.079H254.292V339.408Z" fill="#E6E6E6"/>
    <path d="M252.781 155.4H125.664V157.349H252.781V155.4Z" fill="#E6E6E6"/>
    <path d="M152.211 7.31991L150.41 8.07227L179.176 76.7029L180.976 75.9506L152.211 7.31991Z" fill="#E6E6E6"/>
    <path d="M240.803 23.0879H238.852V76.327H240.803V23.0879Z" fill="#E6E6E6"/>
    <path d="M291.132 105.882C291.132 123.343 264.094 164.03 256.192 175.548C255.954 175.896 255.634 176.181 255.26 176.378C254.887 176.575 254.471 176.678 254.048 176.678C253.626 176.678 253.21 176.575 252.836 176.378C252.463 176.181 252.143 175.896 251.904 175.548C244.003 164.03 216.965 123.343 216.965 105.882C216.965 96.0619 220.872 86.6441 227.826 79.7003C234.781 72.7565 244.213 68.8555 254.048 68.8555C263.884 68.8555 273.316 72.7565 280.27 79.7003C287.225 86.6441 291.132 96.0619 291.132 105.882Z" fill="#A9E0FF"/>
    <path d="M254.047 122.121C264.467 122.121 272.914 113.687 272.914 103.283C272.914 92.8794 264.467 84.4453 254.047 84.4453C243.627 84.4453 235.18 92.8794 235.18 103.283C235.18 113.687 243.627 122.121 254.047 122.121Z" fill="white"/>
    <path d="M252.811 196.411L181.359 338.951L183.105 339.823L254.556 197.283L252.811 196.411Z" fill="#E6E6E6"/>
    <path d="M254.047 203.969C258.719 203.969 262.505 200.189 262.505 195.525C262.505 190.861 258.719 187.08 254.047 187.08C249.376 187.08 245.59 190.861 245.59 195.525C245.59 200.189 249.376 203.969 254.047 203.969Z" fill="#A9E0FF"/>
    <path d="M80.3156 98.7588C85.5133 106.688 85.3471 133.187 85.1876 140.762C85.183 140.991 85.1225 141.215 85.0115 141.415C84.9004 141.615 84.7421 141.786 84.5503 141.911C84.3585 142.036 84.139 142.113 83.9107 142.135C83.6825 142.156 83.4524 142.122 83.2405 142.034C76.2241 139.149 51.8349 128.697 46.6372 120.768C45.1878 118.56 44.1883 116.089 43.6959 113.495C43.2034 110.902 43.2277 108.236 43.7673 105.652C44.3069 103.067 45.3512 100.615 46.8406 98.4334C48.33 96.2521 50.2353 94.3853 52.4475 92.9395C54.6598 91.4937 57.1357 90.4974 59.7338 90.0074C62.3318 89.5174 65.0011 89.5433 67.5891 90.0837C70.1772 90.6242 72.6332 91.6685 74.8168 93.157C77.0005 94.6454 78.869 96.549 80.3156 98.7588V98.7588Z" fill="#3F3D56"/>
    <path d="M62.7042 118.806C68.3592 118.806 72.9435 114.229 72.9435 108.583C72.9435 102.937 68.3592 98.3594 62.7042 98.3594C57.0491 98.3594 52.4648 102.937 52.4648 108.583C52.4648 114.229 57.0491 118.806 62.7042 118.806Z" fill="white"/>
    <path d="M90.1603 155.053C92.6954 155.053 94.7504 153.001 94.7504 150.47C94.7504 147.939 92.6954 145.887 90.1603 145.887C87.6253 145.887 85.5703 147.939 85.5703 150.47C85.5703 153.001 87.6253 155.053 90.1603 155.053Z" fill="#3F3D56"/>
    <path d="M338.669 135.348L358.836 149.672L346.288 151.014L328.809 136.244L338.669 135.348Z" fill="#CCCCCC"/>
    <path d="M417.572 379.921L405.443 379.92L399.672 333.201L417.574 333.202L417.572 379.921Z" fill="#FFB6B6"/>
    <path d="M420.664 375.966L396.777 375.965H396.776C392.739 375.965 388.867 377.567 386.012 380.417C383.158 383.268 381.554 387.134 381.553 391.166V391.66L420.663 391.661L420.664 375.966Z" fill="#2F2E41"/>
    <path d="M425.196 213.051C425.196 213.051 430.453 218.985 421.749 242.115L423.282 368.946L395.074 368.397L388.873 306.53L377.584 216.248L425.196 213.051Z" fill="#2F2E41"/>
    <path d="M367.909 230.587L368.218 230.54C404.304 225.044 431.535 219.775 431.806 219.723L432.145 219.657L422.685 196.681C422.76 194.28 424.807 126.861 420.887 107.491C417.093 88.7395 399.205 85.6665 397.167 85.3774L395.12 78.6055L369.263 92.0417L364.753 107.541L363.837 150.02L367.909 230.587Z" fill="#CCCCCC"/>
    <path d="M352.337 143.154C353.501 143.154 354.653 143.394 355.72 143.86C356.787 144.326 357.746 145.008 358.536 145.862H401.998L417.918 149.246L415.304 169.377L358.672 157.215C357.735 158.273 356.547 159.079 355.217 159.56C353.887 160.041 352.458 160.181 351.06 159.969C349.661 159.757 348.339 159.198 347.212 158.344C346.086 157.489 345.192 156.367 344.611 155.079C344.031 153.791 343.783 152.379 343.89 150.97C343.997 149.562 344.456 148.203 345.224 147.017C345.992 145.831 347.045 144.856 348.288 144.182C349.53 143.507 350.922 143.154 352.337 143.154Z" fill="#FFB6B6"/>
    <path d="M355.527 75.7535C347.347 67.5849 347.347 54.3409 355.527 46.1723C363.707 38.0037 376.97 38.0037 385.15 46.1723C393.33 54.3409 393.33 67.5848 385.15 75.7534C376.97 83.922 363.707 83.9221 355.527 75.7535Z" fill="#FFB6B6"/>
    <path d="M390.037 44.2401L391.053 42.1991L385.943 39.664C385.943 39.664 380.306 30.5054 370.107 33.0791C359.907 35.6529 355.318 37.1933 355.318 37.1933L350.221 39.7542L352.779 42.2957L348.19 43.8361L351.256 45.3572L347.689 47.4046L349.609 57.9003C349.609 57.9003 352.798 49.9397 358.93 52.9818C365.061 56.0239 376.277 51.4092 376.277 51.4092L386.02 70.2399C386.02 70.2399 388.031 63.6388 391.614 65.399C391.615 65.399 400.771 50.8378 390.037 44.2401Z" fill="#2F2E41"/>
    <path d="M415.023 173.152L419.993 158.388L421.195 109.174L419.078 102.191C418.315 99.6782 417.053 97.3446 415.366 95.3304C413.679 93.3161 411.602 91.6627 409.259 90.4692C406.917 89.2758 404.358 88.5668 401.734 88.3848C399.111 88.2028 396.478 88.5515 393.993 89.4101C391.508 90.2687 389.222 91.6194 387.272 93.3813C385.322 95.1432 383.749 97.2801 382.646 99.6639C381.543 102.048 380.933 104.629 380.853 107.254C380.774 109.879 381.225 112.492 382.181 114.939L393.532 143.985L392.955 145.103L368.363 144.904L359.628 160.606L415.023 173.152Z" fill="#CCCCCC"/>
</svg>
