<svg width="419" height="392" viewBox="0 0 419 392" fill="none" xmlns="http://www.w3.org/2000/svg">
    <path d="M148.74 0H35.4796C26.595 0.00997503 18.0771 3.51641 11.7946 9.75004C5.51222 15.9837 1.97833 24.4354 1.96828 33.2511V43.409C1.73582 43.3456 1.49168 43.3366 1.25512 43.3828C1.01856 43.429 0.796044 43.5291 0.605171 43.6753C0.414299 43.8214 0.26028 44.0096 0.155275 44.2249C0.0502692 44.4403 -0.00284471 44.6769 0.000119518 44.9161V52.7276C-0.00284471 52.9668 0.0502692 53.2034 0.155275 53.4188C0.26028 53.6341 0.414299 53.8223 0.605171 53.9685C0.796044 54.1146 1.01856 54.2148 1.25512 54.261C1.49168 54.3072 1.73582 54.2982 1.96828 54.2347V66.0624C1.73582 65.9989 1.49168 65.9899 1.2551 66.0361C1.01853 66.0823 0.796015 66.1824 0.605135 66.3285C0.414255 66.4747 0.260237 66.6629 0.155238 66.8782C0.0502392 67.0936 -0.00286939 67.3302 0.000119518 67.5694V87.0982C-0.00286568 87.3374 0.050238 87.574 0.155238 87.7894C0.260238 88.0048 0.414256 88.1929 0.605135 88.3391C0.796014 88.4853 1.01853 88.5854 1.2551 88.6316C1.49167 88.6778 1.73582 88.6688 1.96828 88.6052V95.7461C1.73582 95.6826 1.49168 95.6736 1.2551 95.7197C1.01853 95.7659 0.796015 95.8661 0.605135 96.0122C0.414255 96.1584 0.260237 96.3466 0.155238 96.5619C0.0502392 96.7773 -0.00286939 97.0139 0.000119518 97.2531V116.782C-0.00286939 117.021 0.0502392 117.258 0.155238 117.473C0.260237 117.688 0.414255 117.877 0.605135 118.023C0.796015 118.169 1.01853 118.269 1.2551 118.315C1.49168 118.361 1.73582 118.352 1.96828 118.289V324.515C1.97833 333.331 5.51222 341.783 11.7946 348.016C18.0771 354.25 26.595 357.756 35.4796 357.766H148.74C157.625 357.756 166.143 354.25 172.425 348.016C178.708 341.783 182.242 333.331 182.252 324.515V33.2511C182.242 24.4354 178.708 15.9837 172.425 9.75004C166.143 3.51641 157.625 0.00997503 148.74 0V0ZM175.166 324.515C175.158 331.467 172.372 338.132 167.417 343.047C162.463 347.963 155.746 350.728 148.74 350.736H35.4796C28.4735 350.728 21.7565 347.963 16.8024 343.047C11.8483 338.132 9.06164 331.467 9.0537 324.515V33.2511C9.06164 26.2993 11.8483 19.6346 16.8024 14.7189C21.7565 9.8033 28.4735 7.03823 35.4796 7.03034H148.74C155.746 7.03822 162.463 9.80329 167.417 14.7189C172.372 19.6346 175.158 26.2993 175.166 33.2511V324.515Z" fill="#3F3D56"/>
    <path d="M146.285 347.454H37.9546C30.2553 347.445 22.8738 344.372 17.4295 338.909C11.9852 333.446 8.9228 326.038 8.91406 318.312V36.5659C8.9228 28.8396 11.9852 21.4323 17.4295 15.969C22.8738 10.5057 30.2553 7.4326 37.9546 7.42383H146.285C153.984 7.43259 161.366 10.5057 166.81 15.969C172.254 21.4323 175.317 28.8396 175.325 36.5659V318.312C175.317 326.038 172.254 333.446 166.81 338.909C161.366 344.372 153.984 347.445 146.285 347.454V347.454Z" fill="#E6E6E6"/>
    <path d="M154.002 351.909H30.2375C24.5842 351.903 19.1642 349.745 15.1667 345.91C11.1692 342.075 8.92051 336.875 8.91406 331.451V27.8819C8.92048 22.458 11.1691 17.258 15.1666 13.4227C19.1641 9.58737 24.5841 7.43 30.2374 7.42385H46.3777C47.3121 7.42487 48.208 7.78146 48.8687 8.41537C49.5294 9.04928 49.901 9.90876 49.9021 10.8052C49.9052 13.4536 51.0031 15.9926 52.955 17.8653C54.9068 19.738 57.5533 20.7913 60.3136 20.7943H122.286C125.047 20.7913 127.693 19.738 129.645 17.8653C131.597 15.9926 132.695 13.4536 132.698 10.8052C132.699 9.90874 133.071 9.04927 133.731 8.41536C134.392 7.78145 135.288 7.42486 136.222 7.42383H154.002C159.655 7.42998 165.075 9.58735 169.073 13.4226C173.07 17.2579 175.319 22.458 175.325 27.8819V331.451C175.319 336.875 173.07 342.075 169.073 345.91C165.075 349.745 159.655 351.903 154.002 351.909V351.909Z" fill="white"/>
    <path d="M376.128 385.324C393.365 385.324 407.338 371.457 407.338 354.35C407.338 337.243 393.365 323.375 376.128 323.375C358.891 323.375 344.918 337.243 344.918 354.35C344.918 371.457 358.891 385.324 376.128 385.324Z" fill="#3F3D56"/>
    <path d="M376.127 374.999C387.618 374.999 396.934 365.754 396.934 354.349C396.934 342.944 387.618 333.699 376.127 333.699C364.636 333.699 355.32 342.944 355.32 354.349C355.32 365.754 364.636 374.999 376.127 374.999Z" fill="white"/>
    <path d="M376.126 366.11C382.669 366.11 387.974 360.845 387.974 354.351C387.974 347.856 382.669 342.592 376.126 342.592C369.582 342.592 364.277 347.856 364.277 354.351C364.277 360.845 369.582 366.11 376.126 366.11Z" fill="#3F3D56"/>
    <path d="M195.804 385.324C213.04 385.324 227.014 371.457 227.014 354.35C227.014 337.243 213.04 323.375 195.804 323.375C178.567 323.375 164.594 337.243 164.594 354.35C164.594 371.457 178.567 385.324 195.804 385.324Z" fill="#3F3D56"/>
    <path d="M195.803 374.999C207.294 374.999 216.609 365.754 216.609 354.349C216.609 342.944 207.294 333.699 195.803 333.699C184.312 333.699 174.996 342.944 174.996 354.349C174.996 365.754 184.312 374.999 195.803 374.999Z" fill="white"/>
    <path d="M418.822 339.618C414.756 329.45 400.55 298.378 375.252 288.094C375.057 288.015 374.853 287.961 374.645 287.931L293.496 276.395C292.158 276.205 290.914 277.113 290.698 278.436L289.275 287.154C289.177 287.753 289.304 288.366 289.635 288.876C293.757 295.221 320.169 338.289 277.873 338.289C236.243 338.289 223.921 308.247 222.071 302.946C221.896 302.445 221.889 301.906 222.05 301.401L234.872 261.105C235.1 260.388 234.974 259.654 234.606 259.067L240.242 248.678L250.566 254.478L255.911 254.542L274.158 264.007L277.873 257.984L240.242 239.355C240.242 239.355 240.306 235.04 228.169 231.598L209.096 222.994L206.784 225.862L212.564 230.451L213.142 233.893L217.187 235.04L225.279 250.527L222.967 254.965L225.773 256.323L224.967 256.141C223.807 255.879 222.623 256.473 222.147 257.555L209.395 286.558C209.2 287.001 208.877 287.378 208.467 287.641L203.925 290.549C203.501 290.821 203.17 291.215 202.977 291.678L197.789 304.167C197.628 304.557 197.582 304.965 197.623 305.359C191.156 306.575 172.144 311.828 161.703 332.553L173.84 342.304C173.84 342.304 192.866 330.087 224.309 342.809C229.774 351.252 237.747 358.258 249.258 358.918C279.607 360.66 329.89 362.38 335.67 355.497C339.901 350.458 342.844 347.312 344.118 345.988C344.566 345.521 345.179 345.251 345.828 345.231L416.599 342.987C418.317 342.933 419.456 341.204 418.822 339.618V339.618Z" fill="#74CDFF"/>
    <path d="M223.544 249.381C228.651 249.381 232.792 245.272 232.792 240.203C232.792 235.134 228.651 231.025 223.544 231.025C218.437 231.025 214.297 235.134 214.297 240.203C214.297 245.272 218.437 249.381 223.544 249.381Z" fill="#3F3D56"/>
    <path d="M371.64 288.129C371.531 288.129 371.421 288.126 371.31 288.122L293.991 285.152C290.57 285.02 287.639 282.859 286.526 279.645L285.467 276.588C284.604 274.096 284.979 271.426 286.497 269.264C288.015 267.102 290.407 265.827 293.062 265.766L372.946 263.944C375.419 263.887 377.801 264.938 379.415 266.83C381.03 268.722 381.688 271.204 381.22 273.639L379.714 281.488C378.967 285.382 375.599 288.129 371.64 288.129V288.129Z" fill="#3F3D56"/>
    <path d="M195.801 366.11C202.345 366.11 207.65 360.845 207.65 354.351C207.65 347.856 202.345 342.592 195.801 342.592C189.258 342.592 183.953 347.856 183.953 354.351C183.953 360.845 189.258 366.11 195.801 366.11Z" fill="#3F3D56"/>
    <path d="M402.702 320.873C400.852 320.873 399.09 319.89 398.15 318.203L392.293 307.683C391.365 306.017 391.418 304.058 392.435 302.444C393.451 300.829 395.207 299.918 397.118 300.022L407.744 300.562C409.723 300.663 411.501 301.898 412.273 303.71L415.379 310.994C415.947 312.327 415.932 313.789 415.339 315.112C414.745 316.434 413.659 317.422 412.28 317.894L404.406 320.589C403.844 320.781 403.269 320.873 402.702 320.873V320.873Z" fill="#3F3D56"/>
    <path d="M268.298 390.79C268.21 390.79 268.121 390.785 268.032 390.775L265.672 390.515C264.901 390.43 264.234 390 263.842 389.336C263.449 388.672 263.396 387.884 263.697 387.174L275.971 358.242L276.238 358.354L275.971 358.242C276.308 357.448 277.053 356.888 277.914 356.781C278.752 356.675 279.57 357.003 280.103 357.651C280.636 358.299 280.794 359.16 280.525 359.953L270.61 389.145C270.276 390.131 269.329 390.79 268.298 390.79V390.79Z" fill="#3F3D56"/>
    <path d="M270.355 370.866L262.062 373.554L247.668 343.086L259.908 339.119L270.355 370.866Z" fill="#FFB8B8"/>
    <path d="M275.095 378.16L248.355 386.827L248.244 386.492C247.798 385.135 247.625 383.705 247.736 382.282C247.846 380.859 248.238 379.472 248.889 378.199C249.54 376.927 250.437 375.794 251.529 374.866C252.62 373.937 253.886 373.231 255.253 372.788L255.253 372.788L271.586 367.494L275.095 378.16Z" fill="#2F2E41"/>
    <path d="M294.781 383.607L286.056 383.606L281.906 350.209L294.782 350.21L294.781 383.607Z" fill="#FFB8B8"/>
    <path d="M297.006 392L268.875 391.999V391.646C268.875 390.219 269.158 388.806 269.708 387.487C270.259 386.169 271.065 384.971 272.082 383.962C273.099 382.953 274.306 382.152 275.634 381.606C276.963 381.06 278.386 380.779 279.824 380.779H279.825L297.006 380.78L297.006 392Z" fill="#2F2E41"/>
    <path d="M281.53 375.48C280.817 375.479 280.129 375.219 279.595 374.749C279.062 374.279 278.72 373.631 278.635 372.928L267.387 279.6L250.922 305.832L270.241 354.83C270.503 355.507 270.502 356.258 270.237 356.934C269.971 357.61 269.461 358.164 268.806 358.487L252.418 366.446C252.044 366.628 251.635 366.728 251.219 366.739C250.802 366.751 250.388 366.674 250.005 366.514C249.621 366.354 249.276 366.114 248.993 365.811C248.711 365.507 248.497 365.147 248.366 364.755L230.204 310.297C228.836 306.198 228.657 301.801 229.688 297.606L241.431 249.778L241.569 249.703L268.04 235.312L268.192 235.368L299.366 246.66L296.104 307.975L298.474 371.615C298.507 372.371 298.238 373.109 297.726 373.67C297.214 374.231 296.5 374.569 295.739 374.612L281.713 375.474C281.652 375.478 281.591 375.48 281.53 375.48Z" fill="#2F2E41"/>
    <path d="M264.357 267.952C259.699 267.952 255.775 266.635 253.32 263.288L253.241 263.18L254.83 246.636L240.701 254.42C240.408 254.581 240.072 254.649 239.738 254.615C239.405 254.581 239.091 254.446 238.837 254.229C238.583 254.012 238.403 253.723 238.32 253.4C238.237 253.078 238.256 252.739 238.374 252.427L255.995 205.985L267.63 168.153C268.207 165.125 269.697 162.342 271.903 160.173C274.109 158.005 276.926 156.552 279.982 156.008V156.008C290.347 154.118 296.52 157.589 303.648 165.292C305.372 167.166 306.642 169.406 307.36 171.841C308.079 174.276 308.227 176.843 307.794 179.343L301.051 217.595L303.032 251.891C303.184 252.482 303.143 253.106 302.916 253.672C302.689 254.239 302.287 254.72 301.767 255.047C296.256 258.528 279.357 267.95 264.357 267.952Z" fill="#A9E0FF"/>
    <path d="M287.939 150.279C297.592 150.279 305.417 142.512 305.417 132.932C305.417 123.352 297.592 115.586 287.939 115.586C278.286 115.586 270.461 123.352 270.461 132.932C270.461 142.512 278.286 150.279 287.939 150.279Z" fill="#FFB8B8"/>
    <path d="M292.489 256.582C293.44 256.149 294.284 255.515 294.961 254.724C295.638 253.932 296.133 253.003 296.409 252.002C296.685 251 296.737 249.951 296.56 248.928C296.384 247.904 295.983 246.932 295.387 246.079L310.377 225.692L297.177 225.07L284.966 244.526C283.588 245.615 282.661 247.167 282.36 248.89C282.059 250.612 282.405 252.384 283.332 253.87C284.259 255.356 285.704 256.453 287.391 256.953C289.079 257.453 290.893 257.321 292.489 256.582V256.582Z" fill="#FFB8B8"/>
    <path d="M280.952 130.718C279.222 129.437 276.827 129.637 274.778 128.965C273.557 128.565 272.464 127.854 271.608 126.903C270.752 125.951 270.164 124.793 269.901 123.545C269.638 122.296 269.711 121.001 270.112 119.789C270.512 118.577 271.227 117.491 272.184 116.64C274.398 114.671 277.548 114.224 280.498 113.864C284.539 113.371 288.62 112.877 292.673 113.269C296.726 113.661 300.806 115.02 303.768 117.793C307.034 120.85 308.643 125.402 308.654 129.858C308.54 134.334 307.302 138.712 305.051 142.594C304.356 144.069 303.307 145.352 301.997 146.333C300.634 147.226 298.712 147.46 297.399 146.495C296.265 145.662 295.849 144.201 295.337 142.896C294.824 141.59 293.949 140.199 292.552 139.998C290.753 139.739 289.38 141.554 287.663 142.149C285.262 142.98 282.594 141.142 281.615 138.812C280.635 136.483 280.893 133.848 281.168 131.339" fill="#2F2E41"/>
    <path d="M330.488 243.914C331.853 243.911 333.163 243.376 334.14 242.424C335.117 241.471 335.684 240.176 335.72 238.813L336.805 198.007L318.248 162.856C317.827 162.065 317.21 161.393 316.457 160.906C315.704 160.419 314.838 160.131 313.942 160.071L299.801 159.164L301.022 241.42L330.028 243.895C330.182 243.908 330.335 243.915 330.488 243.914Z" fill="#72CCFF"/>
    <path d="M296.243 212.838C306.838 212.838 315.457 201.274 315.457 187.06C315.457 172.845 306.838 161.281 296.243 161.281C285.649 161.281 277.03 172.845 277.03 187.06C277.03 201.274 285.649 212.838 296.243 212.838ZM296.243 163.805C305.452 163.805 312.943 174.237 312.943 187.06C312.943 199.882 305.452 210.314 296.243 210.314C287.035 210.314 279.544 199.882 279.544 187.06C279.544 174.237 287.035 163.805 296.243 163.805Z" fill="#72CCFF"/>
    <path d="M329.18 239.676L331.113 198.072L311.311 159.869L310.476 160.291L330.165 198.275L328.243 239.633L329.18 239.676Z" fill="#3F3D56"/>
    <path d="M300.609 245.078C299.877 245.182 299.133 245.006 298.527 244.587L288.604 237.719C288.007 237.309 287.586 236.693 287.425 235.991C287.263 235.289 287.371 234.552 287.729 233.926L305.396 202.73L287.627 181.503C286.694 180.388 286.005 179.093 285.604 177.7C285.203 176.306 285.098 174.845 285.297 173.409C285.496 171.974 285.994 170.595 286.759 169.36C287.524 168.126 288.54 167.063 289.741 166.24C290.943 165.417 292.304 164.85 293.738 164.577C295.172 164.305 296.648 164.331 298.071 164.655C299.494 164.979 300.834 165.593 302.005 166.459C303.176 167.325 304.152 168.423 304.872 169.684L324.491 204.051C324.63 204.296 324.703 204.572 324.703 204.853C324.703 205.134 324.63 205.41 324.49 205.655L302.732 243.643C302.532 243.993 302.259 244.297 301.933 244.537C301.608 244.777 301.235 244.947 300.839 245.036C300.763 245.054 300.686 245.068 300.609 245.078Z" fill="#A9E0FF"/>
    <path d="M208.921 190.346C209.615 191.122 210.473 191.739 211.433 192.151C212.393 192.564 213.432 192.762 214.478 192.733C215.524 192.703 216.55 192.447 217.485 191.981C218.42 191.515 219.241 190.852 219.89 190.037L243.907 198.331L240.661 185.617L218.351 179.691C216.9 178.7 215.134 178.272 213.386 178.488C211.638 178.704 210.03 179.548 208.868 180.861C207.706 182.175 207.069 183.866 207.079 185.614C207.089 187.362 207.744 189.045 208.921 190.346L208.921 190.346Z" fill="#FFB8B8"/>
    <path d="M228.224 196.945C227.766 196.778 227.34 196.539 226.972 196.243C226.603 195.946 226.3 195.599 226.081 195.221C225.861 194.843 225.729 194.443 225.694 194.044C225.658 193.646 225.72 193.257 225.874 192.902L230.448 182.376C230.718 181.748 231.264 181.256 231.988 180.989C232.712 180.721 233.566 180.696 234.395 180.918L269.788 190.291L262.013 207.775L228.393 197.002C228.337 196.984 228.28 196.965 228.224 196.945Z" fill="#A9E0FF"/>
    <path d="M175.325 69.793H8.91406V71.5795H175.325V69.793Z" fill="#C9C9C9" fill-opacity="0.2"/>
    <path d="M175.325 105.525H8.91406V107.312H175.325V105.525Z" fill="#C9C9C9" fill-opacity="0.2"/>
    <path d="M175.325 179.369H8.91406V181.156H175.325V179.369Z" fill="#C9C9C9" fill-opacity="0.2"/>
    <path d="M175.325 253.213H8.91406V254.999H175.325V253.213Z" fill="#C9C9C9" fill-opacity="0.2"/>
    <path d="M175.325 310.979H8.91406V312.765H175.325V310.979Z" fill="#C9C9C9" fill-opacity="0.2"/>
    <path d="M129.766 70.6875H127.984V180.263H129.766V70.6875Z" fill="#C9C9C9" fill-opacity="0.2"/>
    <path d="M46.4569 180.23H44.6758V311.872H46.4569V180.23Z" fill="#C9C9C9" fill-opacity="0.2"/>
    <path d="M171.523 216.34H45.5664V218.126H171.523V216.34Z" fill="#C9C9C9" fill-opacity="0.2"/>
    <path d="M129.957 311.873H128.176V351.909H129.957V311.873Z" fill="#C9C9C9" fill-opacity="0.2"/>
    <path d="M128.579 143.18H12.5742V144.966H128.579V143.18Z" fill="#C9C9C9" fill-opacity="0.2"/>
    <path d="M36.7994 7.42355L35.1562 8.11328L61.4072 71.0316L63.0504 70.3419L36.7994 7.42355Z" fill="#C9C9C9" fill-opacity="0.2"/>
    <path d="M117.648 21.8789H115.867V70.6868H117.648V21.8789Z" fill="#C9C9C9" fill-opacity="0.2"/>
    <path d="M128.608 180.777L63.4023 311.453L64.9951 312.253L130.201 181.576L128.608 180.777Z" fill="#C9C9C9" fill-opacity="0.2"/>
    <path d="M56.471 204.886C60.6425 204.886 64.0241 201.894 64.0241 198.202C64.0241 194.51 60.6425 191.518 56.471 191.518C52.2996 191.518 48.918 194.51 48.918 198.202C48.918 201.894 52.2996 204.886 56.471 204.886Z" fill="#FD6584"/>
    <path d="M73.3764 195.038C73.1628 194.419 72.7497 193.87 72.1879 193.457C71.626 193.043 70.94 192.784 70.2141 192.712C70.1977 192.71 70.1821 192.712 70.1657 192.711C70.1446 192.706 70.1231 192.701 70.1013 192.698C66.6471 192.303 62.6599 193.765 61.2204 196.663C60.8691 196.239 60.4066 195.898 59.8726 195.667C59.3387 195.437 58.7495 195.325 58.1559 195.342C57.3904 195.387 56.6592 195.64 56.0619 196.066C55.4646 196.492 55.0302 197.07 54.8178 197.723C54.7952 197.803 54.8019 197.887 54.837 197.963C54.872 198.039 54.9336 198.104 55.0128 198.147C55.241 198.318 55.5112 198.439 55.802 198.501C56.4293 198.619 57.0588 198.727 57.6905 198.825C58.9233 199.015 60.1625 199.17 61.4081 199.288C63.9366 199.527 66.4808 199.613 69.0226 199.542C69.8692 199.519 70.6855 199.494 71.4612 199.163C72.0255 198.917 72.5076 198.545 72.8601 198.083C73.1922 197.64 73.4106 197.137 73.4998 196.611C73.589 196.085 73.5469 195.548 73.3764 195.038Z" fill="#F0F0F0"/>
    <path d="M62.6352 203.938C62.4234 203.309 62.0138 202.749 61.4568 202.329C60.8998 201.908 60.2196 201.645 59.4999 201.571C59.4836 201.568 59.4682 201.571 59.452 201.57C59.4311 201.564 59.4097 201.56 59.3881 201.557C55.9636 201.155 52.0105 202.643 50.5833 205.593C50.2351 205.162 49.7765 204.814 49.2472 204.579C48.7178 204.345 48.1336 204.231 47.5451 204.248C46.7862 204.294 46.0613 204.551 45.4691 204.985C44.8769 205.418 44.4462 206.007 44.2357 206.672C44.2133 206.753 44.2199 206.838 44.2547 206.916C44.2895 206.994 44.3505 207.059 44.429 207.103C44.6552 207.277 44.9231 207.401 45.2114 207.464C45.8333 207.584 46.4574 207.693 47.0837 207.793C48.3059 207.987 49.5345 208.145 50.7695 208.264C53.2763 208.509 55.7987 208.595 58.3187 208.524C59.158 208.5 59.9673 208.475 60.7364 208.138C61.2958 207.887 61.7737 207.508 62.1233 207.038C62.4526 206.587 62.669 206.075 62.7575 205.54C62.8459 205.004 62.8042 204.458 62.6352 203.938V203.938Z" fill="#F0F0F0"/>
    <path d="M65.6654 307.777C65.8296 308.022 66.2614 308.314 66.4297 308.555L66.2501 308.001L66.3113 307.873L66.6935 307.094L76.4231 287.125L76.4268 287.121L92.9206 253.286V253.282L93.299 252.507V252.503L101.462 235.757L101.848 234.963C101.557 234.971 101.267 234.982 100.976 234.998L100.587 235.796L92.4466 252.503L92.4429 252.507L92.0645 253.282V253.286L75.9913 286.261V286.265L75.6129 287.04V287.043L65.8833 306.997L65.7534 307.265L65.6654 307.777Z" fill="#3F3D56"/>
    <path d="M128.934 252.75H46.8711C47.0909 252.429 47.3146 252.109 47.5472 251.793H128.258C128.491 252.109 128.714 252.429 128.934 252.75Z" fill="#3F3D56"/>
    <path d="M47.5304 249.188V312.546C47.2235 312.259 46.9298 311.967 46.6406 311.676V250.058C46.9298 249.766 47.2235 249.475 47.5304 249.188Z" fill="#3F3D56"/>
    <path d="M129.865 307.006H47.0859V307.793H129.865V307.006Z" fill="#3F3D56"/>
    <path d="M79.9911 218.935C79.9911 219.151 79.9832 219.366 79.9673 219.579C79.8784 220.807 79.5279 222.009 78.9343 223.121C78.9297 223.131 78.9243 223.14 78.9197 223.148C78.8921 223.2 78.8637 223.252 78.8345 223.303C78.658 223.617 78.4621 223.923 78.2479 224.219C77.269 225.576 75.9273 226.7 74.3414 227.49C72.7555 228.279 70.9742 228.711 69.1549 228.747L69.2646 234.329L70.6949 233.663L70.9503 234.092L69.2753 234.873L69.4801 245.24L69.4824 245.378L68.3764 245.596L68.3787 245.457L68.7269 228.748C67.2625 228.729 65.8169 228.454 64.474 227.936C63.131 227.419 61.9176 226.671 60.904 225.736C60.8342 225.672 60.7652 225.606 60.6977 225.541L60.69 225.534C59.8455 224.718 59.1625 223.783 58.6698 222.767C58.6806 222.778 58.6921 222.788 58.7028 222.799C54.1327 212.635 56.7916 207.923 63.9626 210.149C64.0009 210.132 64.04 210.115 64.0784 210.098C66.5866 209.029 69.4571 208.833 72.121 209.549C74.7849 210.264 77.0478 211.84 78.461 213.962C78.5286 214.063 78.5938 214.165 78.6566 214.268C79.5345 215.701 79.9933 217.305 79.9911 218.935V218.935Z" fill="#E5E5E5"/>
    <path d="M93.0346 210.29C92.9009 212.24 92.3308 214.147 91.3574 215.901C89.4843 219.255 86.1965 221.799 82.099 222.747C82.0922 222.751 82.0844 222.752 82.0767 222.751C81.0457 222.989 79.9875 223.123 78.9224 223.149H78.8334C78.7222 223.153 78.611 223.153 78.4997 223.153C78.4241 223.153 78.3485 223.153 78.2728 223.149C74.4579 223.097 70.8192 221.719 68.1422 219.313C65.4653 216.907 63.9648 213.666 63.9648 210.29V210.148C63.9715 209.327 64.1063 208.511 64.3653 207.723C64.3653 207.719 64.3697 207.715 64.3697 207.711C64.8529 206.341 65.7244 205.104 66.9012 204.116C69.8153 201.565 74.4289 199.962 78.4997 197.427C87.4155 191.875 93.9645 197.399 93.0346 210.29Z" fill="#E5E5E5"/>
    <path opacity="0.2" d="M91.3559 215.9C89.4829 219.254 86.1951 221.798 82.0975 222.746C82.0907 222.75 82.083 222.751 82.0753 222.75C81.047 222.976 79.9935 223.1 78.9343 223.121H78.832C78.6451 223.124 78.4582 223.124 78.2714 223.121C74.4462 223.036 70.8125 221.622 68.1564 219.185C65.5003 216.747 64.0356 213.482 64.0791 210.096C64.0926 209.299 64.1879 208.504 64.3638 207.722C64.3638 207.718 64.3682 207.714 64.3682 207.71C64.8514 206.34 65.723 205.103 66.8997 204.115C66.5045 205.784 66.488 207.505 66.8511 209.179C67.2142 210.853 67.9497 212.447 69.0148 213.867C70.0799 215.287 71.4535 216.506 73.0555 217.453C74.6576 218.399 76.4563 219.054 78.347 219.38C78.4849 219.404 78.6229 219.427 78.7608 219.447C79.1612 219.506 79.5616 219.549 79.9665 219.577C82.0522 219.727 84.1499 219.476 86.1158 218.841C88.0816 218.206 89.8692 217.203 91.3559 215.9V215.9Z" fill="black"/>
    <path d="M78.9914 231.178L81.1859 230.156L80.851 229.593L78.9767 230.466L78.8358 223.303V223.302L78.8324 223.15V223.123L78.7596 219.448L78.6576 214.269L78.5795 210.289H78.5385L78.462 213.962V213.963L78.3493 219.382L78.2715 223.121L78.2711 223.152L78.2487 224.219L77.8038 245.618L77.8008 245.759L79.2853 246.128L79.2826 245.986L78.9914 231.178Z" fill="#3F3D56"/>
    <path d="M192.443 157.815C188.768 155.247 184.619 153.422 180.233 152.444C175.847 151.467 171.311 151.357 166.882 152.119C162.453 152.882 158.219 154.503 154.422 156.89C150.624 159.277 147.338 162.382 144.75 166.03C133.865 181.369 122.944 221.592 130.653 244.894C153.649 220.787 188.978 218.282 200.719 205.149C213.266 191.116 207.898 168.618 192.443 157.815Z" fill="#A9E0FF"/>
    <path d="M172.268 192.55C178.433 192.55 183.431 187.59 183.431 181.471C183.431 175.353 178.433 170.393 172.268 170.393C166.103 170.393 161.105 175.353 161.105 181.471C161.105 187.59 166.103 192.55 172.268 192.55Z" fill="white"/>
    <path d="M121.218 256.96C125.256 256.96 128.529 253.711 128.529 249.704C128.529 245.696 125.256 242.447 121.218 242.447C117.18 242.447 113.906 245.696 113.906 249.704C113.906 253.711 117.18 256.96 121.218 256.96Z" fill="#A9E0FF"/>
    <path opacity="0.2" d="M184.213 178.914C184.952 180.17 185.435 181.559 185.633 183C185.832 184.442 185.742 185.908 185.37 187.315C184.997 188.722 184.349 190.042 183.462 191.201C182.576 192.36 181.468 193.333 180.202 194.067C178.936 194.801 177.537 195.279 176.084 195.476C174.632 195.673 173.155 195.584 171.737 195.215C170.319 194.845 168.989 194.202 167.821 193.322C166.654 192.442 165.673 191.342 164.934 190.086C166.926 191.821 169.476 192.795 172.126 192.835C174.776 192.874 177.354 191.977 179.398 190.302C181.443 188.628 182.82 186.286 183.283 183.696C183.747 181.106 183.267 178.437 181.928 176.166C182.834 176.954 183.606 177.882 184.213 178.914V178.914Z" fill="#231F20"/>
    <path opacity="0.2" d="M200.742 205.202C189.001 218.335 153.672 220.84 130.676 244.947C129.959 242.742 129.406 240.487 129.023 238.202C152.008 216.287 185.37 213.517 196.714 200.828C206.868 189.471 205.288 172.572 196.124 160.812C208.692 172.375 212.24 192.342 200.742 205.202Z" fill="#231F20"/>
    <path d="M101.719 15.2776H86.3942C85.9426 15.2776 85.5094 15.0986 85.1901 14.7799C84.8708 14.4612 84.6914 14.029 84.6914 13.5783C84.6914 13.1276 84.8708 12.6953 85.1901 12.3766C85.5094 12.0579 85.9426 11.8789 86.3942 11.8789H101.719C102.171 11.8789 102.604 12.0579 102.923 12.3766C103.242 12.6953 103.422 13.1276 103.422 13.5783C103.422 14.029 103.242 14.4612 102.923 14.7799C102.604 15.0986 102.171 15.2776 101.719 15.2776V15.2776Z" fill="white"/>
    <path d="M112.363 14.8537C112.833 14.8537 113.214 14.4732 113.214 14.004C113.214 13.5347 112.833 13.1543 112.363 13.1543C111.893 13.1543 111.512 13.5347 111.512 14.004C111.512 14.4732 111.893 14.8537 112.363 14.8537Z" fill="white"/>
</svg>
