<svg width="530" height="355" viewBox="0 0 530 355" fill="none" xmlns="http://www.w3.org/2000/svg">
    <path d="M404.978 349.566L397.756 349.565L394.32 321.271L404.979 321.272L404.978 349.566Z" fill="#FFB6B6"/>
    <path d="M380.234 349.399C380.009 349.784 379.891 351.025 379.891 351.472C379.891 352.847 380.988 353.962 382.342 353.962H404.707C405.63 353.962 406.379 353.202 406.379 352.264V351.318C406.379 351.318 407.485 348.475 405.207 344.972C405.207 344.972 402.376 347.715 398.146 343.418L396.899 341.123L387.869 347.831L382.863 348.457C381.768 348.594 380.797 348.435 380.234 349.399V349.399Z" fill="#2F2E41"/>
    <path d="M372.146 349.566L364.924 349.565L361.488 321.271L372.147 321.272L372.146 349.566Z" fill="#FFB6B6"/>
    <path d="M347.402 349.399C347.177 349.784 347.059 351.025 347.059 351.472C347.059 352.847 348.156 353.962 349.51 353.962H371.875C372.798 353.962 373.547 353.202 373.547 352.264V351.318C373.547 351.318 374.653 348.475 372.375 344.972C372.375 344.972 369.544 347.715 365.314 343.418L364.067 341.123L355.036 347.831L350.031 348.457C348.936 348.594 347.965 348.435 347.402 349.399V349.399Z" fill="#2F2E41"/>
    <path d="M416.566 172.924L366.31 174.285L361.186 186.536L354.918 266.169L360.279 336.273H375.928V270.108L387.752 229.415L392.443 334.231L408.599 336.273L415.226 264.127L421.257 195.384L416.566 172.924Z" fill="#2F2E41"/>
    <path d="M398.713 81.7188L381.291 82.3994L379.28 90.5668C379.28 90.5668 357.837 96.6924 359.177 104.86C360.518 113.027 367.219 149.1 367.219 149.1C367.219 149.1 359.848 172.241 364.538 174.964C369.229 177.686 417.565 174.964 417.565 174.964C417.565 174.964 421.496 164.754 419.486 163.393C417.475 162.032 425.517 96.6924 424.176 95.3311C422.836 93.9699 400.723 87.1637 400.723 87.1637L398.713 81.7188V81.7188Z" fill="#CCCCCC"/>
    <path d="M432.886 149.78L434.226 159.309L419.484 193.34L412.113 189.256L420.154 157.267L421.495 145.016L432.886 149.78Z" fill="#FFB6B6"/>
    <path d="M418.815 96.0122C418.815 96.0122 426.186 92.6091 431.547 104.86C436.908 117.111 435.567 143.656 435.567 143.656C435.567 143.656 437.578 145.697 436.237 147.059C434.897 148.42 432.35 145.217 434.897 149.545C436.237 151.823 440.258 151.142 436.237 151.823C432.217 152.504 433.626 150.601 434.897 153.184C435.567 154.546 438.248 154.545 435.567 155.226C432.887 155.907 419.4 154.738 419.4 154.738C419.4 154.738 414.794 152.504 417.475 151.142C420.155 149.781 421.495 149.513 420.155 148.967C418.815 148.42 415.465 148.42 417.475 146.378C419.485 144.336 420.825 144.336 419.485 144.336C418.145 144.336 416.637 141.056 416.637 141.056L418.815 96.0122V96.0122Z" fill="#CCCCCC"/>
    <path d="M418.645 199.052C420.278 194.088 419.249 189.265 416.347 188.28C413.445 187.296 409.769 190.522 408.136 195.486C406.503 200.45 407.532 205.273 410.434 206.258C413.336 207.242 417.012 204.016 418.645 199.052Z" fill="#FFB6B6"/>
    <path d="M339.54 146.559L334.21 154.517L300.742 169.575L298.004 161.513L325.166 143.378L334.283 135.242L339.54 146.559Z" fill="#FFB6B6"/>
    <path d="M364.807 97.1953C364.807 97.1953 372.511 99.7251 368.345 112.447C364.18 125.168 345.581 143.865 345.581 143.865C345.581 143.865 345.712 146.75 343.819 146.839C341.926 146.927 342.169 142.817 341.179 147.759C340.659 150.359 344.081 152.608 340.659 150.359C337.236 148.111 339.539 147.669 338.765 150.448C338.357 151.912 340.338 153.747 337.906 152.415C335.474 151.084 326.283 140.991 326.283 140.991C326.283 140.991 324.362 136.187 327.246 137.016C330.129 137.844 331.297 138.563 330.67 137.242C330.042 135.921 327.566 133.628 330.406 133.495C333.246 133.362 334.236 134.279 333.246 133.362C332.256 132.445 333.317 128.989 333.317 128.989L364.807 97.1953V97.1953Z" fill="#CCCCCC"/>
    <path d="M296.332 173.22C300.832 170.669 303.271 166.401 301.78 163.688C300.288 160.974 295.432 160.842 290.932 163.393C286.433 165.944 283.994 170.212 285.485 172.925C286.976 175.639 291.833 175.771 296.332 173.22Z" fill="#FFB6B6"/>
    <path d="M390.757 78.394C399.644 78.394 406.849 71.0759 406.849 62.0485C406.849 53.0212 399.644 45.7031 390.757 45.7031C381.869 45.7031 374.664 53.0212 374.664 62.0485C374.664 71.0759 381.869 78.394 390.757 78.394Z" fill="#FFB6B6"/>
    <path d="M377.904 48.9006C378.723 46.5417 380.995 45.1106 383.456 45.1664C383.561 45.1687 383.665 45.1677 383.768 45.1634C385.008 45.1119 386.198 44.6818 387.414 44.4295C389.68 43.9591 392.069 44.1166 394.256 44.8804C394.936 45.1178 395.616 45.4163 396.335 45.4164C397.054 45.4165 397.837 45.0161 398.012 44.3081C398.054 44.9491 398.095 45.5902 398.137 46.2312C398.371 45.7124 398.605 45.1935 398.839 44.6746L399.307 46.7438L400.808 45.0145C400.674 45.7767 401.111 46.5449 401.704 47.0322C402.296 47.5196 403.028 47.7891 403.729 48.0927C406.756 49.4032 409.598 51.7233 410.47 54.9458C411.021 56.9817 410.733 59.1425 410.441 61.233C410.183 63.0811 409.902 64.9931 408.913 66.5663C408.279 67.5748 407.365 68.4234 406.979 69.554C406.619 70.6077 406.755 71.8142 406.243 72.8009C405.729 73.7921 404.668 74.3528 403.629 74.7294C402.591 75.1061 401.486 75.3725 400.592 76.0279C399.697 76.6833 398.659 78.5713 396.71 78.4697L396.081 77.2694C395.434 76.7339 397.829 77.1584 397.854 76.311C397.879 75.4636 394.972 74.9401 395.384 74.2027C396.016 73.072 396.871 72.0879 397.583 71.0073C398.415 69.7436 399.07 68.2671 398.782 66.7247C398.671 66.1247 398.394 65.5579 397.973 65.1221C396.759 63.8657 395.406 64.4179 394.09 64.5977C393.183 64.7216 392.1 64.5785 391.63 63.7817C391.079 62.8495 391.693 61.6636 391.618 60.5792C391.538 59.43 390.681 58.4878 389.748 57.8327C388.815 57.1775 387.756 56.7002 386.917 55.9254C386.078 55.1505 386.211 55.5524 386.576 54.4621C380.337 59.215 381.259 51.0084 377.07 52.0342C377.27 50.9702 377.549 49.922 377.904 48.9006L377.904 48.9006Z" fill="#2F2E41"/>
    <path d="M345.906 339.382C344.273 340.235 342.639 341.389 341.401 343.431C341.168 343.816 340.96 344.235 340.766 344.669C341.315 340.764 342.41 337.09 343.988 334.029C344.57 332.9 343.592 331.245 343.006 332.382V332.382C340.504 333.681 339.45 336.719 339.048 340.315C338.55 339.027 337.939 337.865 337.226 336.898C336.934 336.502 336.529 336.42 336.244 336.898C336 337.306 335.951 338.147 336.244 338.545C335.168 344.197 337.946 345.948 338.905 348.762C338.927 349.386 338.95 350.002 338.971 350.604C338.992 351.2 339.219 351.556 339.483 351.677C339.61 352.01 339.841 352.239 340.076 352.239C340.469 352.239 340.749 351.705 340.77 351.074C340.847 348.761 341.084 344.744 342.458 344.957C345.385 345.411 345.521 343.044 346.276 341.629C346.87 340.515 346.763 338.935 345.906 339.382H345.906Z" fill="#E6E6E6"/>
    <path d="M447.675 322.143C451.355 324.123 455.038 326.803 457.827 331.546C458.353 332.439 458.821 333.412 459.26 334.421C458.023 325.352 455.556 316.819 451.999 309.712C450.688 307.09 452.892 303.248 454.212 305.887V305.887C459.85 308.904 462.225 315.958 463.132 324.31C464.252 321.319 465.631 318.619 467.238 316.373C467.894 315.456 468.809 315.264 469.451 316.373C470 317.322 470.111 319.275 469.451 320.199C471.876 333.324 465.615 337.39 463.453 343.925C463.404 345.374 463.352 346.805 463.304 348.202C463.257 349.588 462.746 350.413 462.152 350.695C461.864 351.467 461.344 352 460.815 352C459.929 352 459.298 350.76 459.251 349.295C459.077 343.923 458.543 334.593 455.446 335.089C448.85 336.143 448.545 330.647 446.843 327.36C445.504 324.774 445.744 321.104 447.675 322.143V322.143Z" fill="#BEBEBE"/>
    <path d="M244.868 352.065H113.006C96.9283 352.065 83.8477 338.779 83.8477 322.448V34.617C83.8476 18.2862 96.9283 5 113.006 5H244.868C260.946 5 274.026 18.2862 274.026 34.617V322.448C274.026 338.779 260.946 352.065 244.868 352.065V352.065Z" fill="#3F3D56"/>
    <path d="M274.03 110.875C273.35 110.875 272.797 111.437 272.797 112.128V152.222C272.797 152.913 273.35 153.475 274.03 153.475C274.711 153.475 275.264 152.913 275.264 152.222V112.128C275.264 111.437 274.711 110.875 274.03 110.875Z" fill="#3F3D56"/>
    <path d="M271.253 34.6168V322.443C271.253 336.657 260.36 348.285 246.587 349.187H246.581C246.378 349.199 246.174 349.212 245.965 349.218C245.601 349.237 245.237 349.243 244.867 349.243C244.867 349.243 243.51 349.143 241.03 348.955C238.526 348.767 234.881 348.485 230.335 348.116C228.972 348.009 227.535 347.89 226.018 347.765C222.996 347.514 219.677 347.238 216.118 346.925C214.7 346.806 213.232 346.675 211.733 346.543C204.073 345.873 195.493 345.09 186.445 344.2C184.916 344.056 183.374 343.906 181.819 343.749C181.412 343.705 180.999 343.668 180.586 343.624C174.134 342.978 86.625 325.801 86.625 322.443V34.6168C86.625 19.8133 98.4364 7.81641 113.011 7.81641H128.763C131.28 7.81641 133.303 9.80858 133.519 12.3583C133.537 12.5275 133.556 12.6966 133.587 12.8658C134.043 15.428 136.356 17.2135 138.922 17.2135H218.956C221.521 17.2135 223.834 15.428 224.291 12.8658C224.322 12.6966 224.34 12.5275 224.359 12.3583C224.575 9.80858 226.598 7.81641 229.114 7.81641H244.867C259.441 7.81641 271.252 19.8133 271.252 34.6168H271.253Z" fill="white"/>
    <path d="M83.2336 80.8027C82.5532 80.8027 82 81.3647 82 82.0557V92.0792C82 92.7702 82.5532 93.3321 83.2336 93.3321C83.9139 93.3321 84.4671 92.7702 84.4671 92.0792V82.0557C84.4671 81.3647 83.9139 80.8027 83.2336 80.8027Z" fill="#3F3D56"/>
    <path d="M83.2336 110.875C82.5532 110.875 82 111.437 82 112.128V131.549C82 132.24 82.5532 132.801 83.2336 132.801C83.9139 132.801 84.4671 132.24 84.4671 131.549V112.128C84.4671 111.437 83.9139 110.875 83.2336 110.875Z" fill="#3F3D56"/>
    <path d="M83.2336 138.438C82.5532 138.438 82 138.999 82 139.69V159.111C82 159.802 82.5532 160.364 83.2336 160.364C83.9139 160.364 84.4671 159.802 84.4671 159.111V139.69C84.4671 138.999 83.9139 138.438 83.2336 138.438Z" fill="#3F3D56"/>
    <path d="M128.334 12.2051H104.744C104.616 12.2051 104.512 12.3105 104.512 12.4406V15.1019C104.512 15.232 104.616 15.3374 104.744 15.3374H128.334C128.462 15.3374 128.566 15.232 128.566 15.1019V12.4406C128.566 12.3105 128.462 12.2051 128.334 12.2051Z" fill="#E6E6E6"/>
    <path d="M233.01 15.3379C234.373 15.3379 235.477 14.216 235.477 12.8321C235.477 11.4481 234.373 10.3262 233.01 10.3262C231.648 10.3262 230.543 11.4481 230.543 12.8321C230.543 14.216 231.648 15.3379 233.01 15.3379Z" fill="#E6E6E6"/>
    <path d="M239.795 15.3379C241.158 15.3379 242.262 14.216 242.262 12.8321C242.262 11.4481 241.158 10.3262 239.795 10.3262C238.433 10.3262 237.328 11.4481 237.328 12.8321C237.328 14.216 238.433 15.3379 239.795 15.3379Z" fill="#E6E6E6"/>
    <path d="M246.584 15.3379C247.947 15.3379 249.051 14.216 249.051 12.8321C249.051 11.4481 247.947 10.3262 246.584 10.3262C245.222 10.3262 244.117 11.4481 244.117 12.8321C244.117 14.216 245.222 15.3379 246.584 15.3379Z" fill="#E6E6E6"/>
    <path d="M135.887 349.55C119.334 349.55 105.915 335.92 105.915 319.107C105.915 302.294 119.334 288.664 135.887 288.664C152.44 288.664 165.859 302.294 165.859 319.107C165.859 335.92 152.44 349.55 135.887 349.55Z" fill="#3F3D56"/>
    <path d="M135.89 339.401C124.854 339.401 115.908 330.315 115.908 319.106C115.908 307.897 124.854 298.811 135.89 298.811C146.925 298.811 155.871 307.897 155.871 319.106C155.871 330.315 146.925 339.401 135.89 339.401Z" fill="white"/>
    <path d="M135.891 330.665C129.607 330.665 124.513 325.491 124.513 319.108C124.513 312.725 129.607 307.551 135.891 307.551C142.175 307.551 147.27 312.725 147.27 319.108C147.27 325.491 142.175 330.665 135.891 330.665Z" fill="#3F3D56"/>
    <path d="M309.063 349.55C292.51 349.55 279.091 335.92 279.091 319.107C279.091 302.294 292.51 288.664 309.063 288.664C325.616 288.664 339.035 302.294 339.035 319.107C339.035 335.92 325.616 349.55 309.063 349.55Z" fill="#3F3D56"/>
    <path d="M309.061 339.401C298.026 339.401 289.08 330.315 289.08 319.106C289.08 307.897 298.026 298.811 309.061 298.811C320.097 298.811 329.043 307.897 329.043 319.106C329.043 330.315 320.097 339.401 309.061 339.401Z" fill="white"/>
    <path d="M94.8866 304.629C98.7909 294.635 112.434 264.096 136.729 253.989C136.916 253.911 137.112 253.858 137.312 253.828L215.243 242.49C216.527 242.303 217.722 243.196 217.929 244.497L219.296 253.065C219.39 253.653 219.268 254.256 218.95 254.757C214.992 260.993 189.627 303.322 230.245 303.322C270.225 303.322 282.058 273.795 283.835 268.585C284.002 268.093 284.009 267.563 283.855 267.067L271.542 227.462C271.323 226.758 271.444 226.036 271.797 225.46L266.385 215.249L256.47 220.949L251.337 221.013L233.814 230.315L230.245 224.395L266.385 206.086C266.385 206.086 266.323 201.845 277.979 198.462L296.295 190.006L298.515 192.825L292.965 197.335L292.41 200.717L288.525 201.845L280.754 217.066L282.974 221.428L280.279 222.762L281.053 222.584C282.168 222.326 283.305 222.91 283.762 223.974L296.008 252.478C296.195 252.914 296.505 253.285 296.899 253.543L301.261 256.401C301.669 256.668 301.986 257.056 302.171 257.511L307.153 269.786C307.309 270.168 307.353 270.569 307.313 270.957C313.524 272.153 331.781 277.315 341.809 297.684L330.153 307.268C330.153 307.268 311.882 295.261 281.686 307.765C276.437 316.062 268.78 322.948 257.726 323.597C228.58 325.309 180.292 327 174.741 320.235C170.678 315.282 167.851 312.19 166.628 310.888C166.197 310.43 165.609 310.165 164.986 310.145L97.0214 307.94C95.3715 307.886 94.2778 306.187 94.8866 304.628V304.629Z" fill="#74CDFF"/>
    <path d="M282.42 215.939C277.515 215.939 273.539 211.9 273.539 206.919C273.539 201.937 277.515 197.898 282.42 197.898C287.325 197.898 291.301 201.937 291.301 206.919C291.301 211.9 287.325 215.939 282.42 215.939Z" fill="#3F3D56"/>
    <path d="M140.198 254.024C140.303 254.024 140.409 254.022 140.515 254.018L214.767 251.098C218.053 250.969 220.867 248.844 221.937 245.686L222.953 242.682C223.782 240.232 223.422 237.609 221.964 235.483C220.507 233.358 218.209 232.105 215.66 232.045L138.944 230.254C136.568 230.199 134.281 231.232 132.731 233.091C131.18 234.95 130.548 237.389 130.997 239.783L132.444 247.497C133.162 251.324 136.395 254.024 140.198 254.024V254.024Z" fill="#3F3D56"/>
    <path d="M309.059 330.665C302.775 330.665 297.681 325.491 297.681 319.108C297.681 312.725 302.775 307.551 309.059 307.551C315.343 307.551 320.438 312.725 320.438 319.108C320.438 325.491 315.343 330.665 309.059 330.665Z" fill="#3F3D56"/>
    <path d="M110.369 286.205C112.147 286.205 113.839 285.238 114.741 283.58L120.366 273.241C121.257 271.603 121.206 269.678 120.23 268.092C119.254 266.504 117.568 265.609 115.733 265.711L105.528 266.242C103.628 266.341 101.92 267.555 101.178 269.336L98.1958 276.495C97.6505 277.805 97.6641 279.242 98.2338 280.542C98.804 281.842 99.8474 282.813 101.172 283.277L108.733 285.925C109.273 286.114 109.825 286.205 110.369 286.205V286.205Z" fill="#3F3D56"/>
    <path d="M239.443 354.921C239.527 354.921 239.612 354.916 239.698 354.906L241.964 354.65C242.705 354.567 243.345 354.144 243.723 353.492C244.1 352.839 244.15 352.064 243.861 351.367L232.074 322.932L231.818 323.041L232.074 322.932C231.75 322.151 231.035 321.601 230.208 321.496C229.403 321.392 228.618 321.713 228.106 322.351C227.594 322.988 227.443 323.833 227.701 324.613L237.223 353.304C237.543 354.273 238.452 354.921 239.443 354.921V354.921Z" fill="#3F3D56"/>
    <path d="M216.535 322L224.455 324.627L238.199 294.851L226.511 290.975L216.535 322Z" fill="#FFB8B8"/>
    <path d="M212.011 329.126L237.546 337.597L237.651 337.269C238.078 335.943 238.243 334.545 238.137 333.155C238.031 331.764 237.657 330.409 237.036 329.165C236.414 327.921 235.558 326.814 234.515 325.907C233.472 325 232.264 324.31 230.959 323.877L230.958 323.877L215.363 318.703L212.011 329.126Z" fill="#2F2E41"/>
    <path d="M193.206 334.451L201.537 334.451L205.5 301.812L193.205 301.813L193.206 334.451Z" fill="#FFB8B8"/>
    <path d="M191.083 342.653L217.945 342.652V342.307C217.945 340.912 217.675 339.532 217.149 338.243C216.624 336.955 215.854 335.784 214.883 334.798C213.912 333.812 212.759 333.029 211.491 332.496C210.222 331.962 208.863 331.687 207.49 331.688H207.489L191.083 331.688L191.083 342.653Z" fill="#2F2E41"/>
    <path d="M205.861 326.506C206.542 326.506 207.199 326.251 207.709 325.792C208.218 325.333 208.544 324.7 208.625 324.013L219.367 232.806L235.089 258.442L216.641 306.326C216.391 306.988 216.392 307.721 216.645 308.382C216.899 309.043 217.386 309.584 218.011 309.9L233.66 317.678C234.018 317.856 234.408 317.953 234.806 317.965C235.203 317.976 235.598 317.901 235.965 317.745C236.331 317.588 236.661 317.354 236.931 317.057C237.201 316.761 237.405 316.409 237.53 316.025L254.873 262.805C256.179 258.8 256.35 254.502 255.365 250.403L244.151 203.662L244.02 203.589L218.742 189.525L218.598 189.579L188.829 200.615L191.945 260.536L189.681 322.729C189.65 323.468 189.907 324.19 190.396 324.738C190.885 325.286 191.566 325.617 192.293 325.658L205.687 326.501C205.745 326.504 205.803 326.506 205.861 326.506Z" fill="#2F2E41"/>
    <path d="M222.261 221.423C226.709 221.423 230.455 220.136 232.8 216.865L232.876 216.76L231.359 200.592L244.85 208.199C245.13 208.356 245.451 208.423 245.769 208.39C246.087 208.356 246.388 208.225 246.63 208.012C246.872 207.8 247.045 207.517 247.124 207.202C247.202 206.887 247.184 206.556 247.072 206.251L230.246 160.865L219.135 123.893C218.585 120.933 217.162 118.214 215.055 116.095C212.949 113.975 210.259 112.555 207.34 112.024V112.024C197.443 110.177 191.548 113.569 184.742 121.096C183.095 122.928 181.883 125.117 181.197 127.497C180.511 129.877 180.369 132.385 180.783 134.829L187.222 172.21L185.33 205.727C185.185 206.305 185.224 206.914 185.441 207.468C185.658 208.022 186.042 208.492 186.538 208.811C191.8 212.214 207.938 221.422 222.261 221.423Z" fill="#A9E0FF"/>
    <path d="M199.744 106.427C190.526 106.427 183.054 98.8378 183.054 89.4754C183.054 80.1131 190.526 72.5234 199.744 72.5234C208.961 72.5234 216.434 80.1131 216.434 89.4754C216.434 98.8378 208.961 106.427 199.744 106.427Z" fill="#FFB8B8"/>
    <path d="M195.398 210.313C194.49 209.89 193.684 209.27 193.038 208.497C192.391 207.724 191.919 206.816 191.655 205.837C191.392 204.858 191.342 203.833 191.511 202.833C191.679 201.833 192.062 200.882 192.631 200.049L178.318 180.125L190.922 179.518L202.582 198.531C203.898 199.595 204.783 201.112 205.071 202.795C205.358 204.479 205.028 206.21 204.143 207.663C203.257 209.115 201.878 210.187 200.266 210.676C198.655 211.164 196.922 211.035 195.398 210.313V210.313Z" fill="#FFB8B8"/>
    <path d="M206.413 87.3108C208.065 86.0584 210.351 86.2538 212.309 85.5974C213.474 85.2065 214.518 84.5114 215.335 83.5816C216.152 82.6518 216.715 81.5201 216.965 80.2999C217.216 79.0798 217.147 77.814 216.764 76.6297C216.382 75.4454 215.699 74.3841 214.785 73.5522C212.671 71.6282 209.664 71.1916 206.847 70.8396C202.987 70.3573 199.09 69.8744 195.22 70.2578C191.35 70.6413 187.454 71.9691 184.626 74.679C181.507 77.6669 179.97 82.1148 179.96 86.4695C180.069 90.8446 181.251 95.1229 183.4 98.9162C184.064 100.358 185.066 101.612 186.317 102.57C187.619 103.443 189.453 103.671 190.707 102.729C191.791 101.914 192.187 100.487 192.677 99.2112C193.166 97.9353 194.002 96.5763 195.336 96.3794C197.054 96.126 198.365 97.9005 200.004 98.4811C202.297 99.2932 204.844 97.497 205.78 95.2208C206.715 92.9445 206.469 90.3691 206.206 87.917" fill="#2F2E41"/>
    <path d="M159.11 197.931C157.806 197.928 156.555 197.405 155.622 196.474C154.69 195.544 154.148 194.278 154.114 192.946L153.078 153.067L170.798 118.716C171.2 117.942 171.789 117.286 172.508 116.81C173.228 116.333 174.054 116.052 174.909 115.993L188.413 115.107L187.247 195.493L159.549 197.912C159.402 197.925 159.256 197.932 159.11 197.931Z" fill="#72CCFF"/>
    <path d="M191.812 167.564C181.695 167.564 173.465 156.263 173.465 142.372C173.465 128.481 181.695 117.18 191.812 117.18C201.929 117.18 210.159 128.481 210.159 142.372C210.159 156.263 201.929 167.564 191.812 167.564ZM191.812 119.646C183.019 119.646 175.865 129.841 175.865 142.372C175.865 154.903 183.019 165.098 191.812 165.098C200.605 165.098 207.759 154.903 207.759 142.372C207.759 129.841 200.605 119.646 191.812 119.646Z" fill="#72CCFF"/>
    <path d="M160.358 193.791L158.512 153.134L177.421 115.799L178.218 116.211L159.418 153.332L161.252 193.75L160.358 193.791Z" fill="#3F3D56"/>
    <path d="M187.645 199.07C188.344 199.171 189.054 199 189.633 198.59L199.109 191.878C199.678 191.478 200.08 190.876 200.234 190.19C200.389 189.504 200.285 188.784 199.944 188.172L183.074 157.685L200.041 136.94C200.932 135.851 201.59 134.585 201.973 133.223C202.356 131.861 202.456 130.434 202.266 129.031C202.076 127.627 201.6 126.28 200.87 125.074C200.139 123.867 199.169 122.829 198.022 122.024C196.875 121.219 195.575 120.666 194.206 120.399C192.836 120.133 191.427 120.158 190.068 120.475C188.709 120.792 187.43 121.392 186.312 122.238C185.194 123.085 184.261 124.158 183.574 125.39L164.839 158.976C164.707 159.215 164.637 159.485 164.637 159.76C164.637 160.034 164.707 160.304 164.84 160.543L185.617 197.667C185.809 198.009 186.069 198.307 186.38 198.541C186.691 198.776 187.047 198.942 187.425 199.029C187.498 199.046 187.571 199.06 187.645 199.07Z" fill="#A9E0FF"/>
    <path d="M275.196 145.583C274.533 146.342 273.715 146.945 272.798 147.348C271.881 147.751 270.889 147.945 269.89 147.916C268.892 147.887 267.911 147.637 267.019 147.181C266.126 146.726 265.342 146.078 264.723 145.282L241.788 153.386L244.888 140.962L266.191 135.171C267.577 134.203 269.264 133.784 270.933 133.995C272.602 134.206 274.137 135.031 275.247 136.314C276.357 137.598 276.965 139.25 276.956 140.959C276.946 142.667 276.32 144.312 275.196 145.583L275.196 145.583Z" fill="#FFB8B8"/>
    <path d="M256.764 152.031C257.201 151.867 257.608 151.634 257.96 151.345C258.312 151.055 258.602 150.715 258.811 150.346C259.021 149.977 259.146 149.586 259.18 149.196C259.214 148.807 259.156 148.427 259.008 148.079L254.64 137.793C254.383 137.18 253.862 136.698 253.17 136.437C252.479 136.176 251.663 136.151 250.872 136.369L217.075 145.529L224.499 162.615L256.603 152.087C256.657 152.069 256.711 152.051 256.764 152.031Z" fill="#A9E0FF"/>
    <path d="M51.3251 324.143C47.6447 326.123 43.9616 328.803 41.1725 333.546C40.6471 334.439 40.1787 335.412 39.7401 336.421C40.977 327.352 43.4445 318.819 47.0007 311.712C48.3124 309.09 46.1083 305.248 44.7879 307.887V307.887C39.1502 310.904 36.7749 317.958 35.8683 326.31C34.7476 323.319 33.3695 320.619 31.7622 318.373C31.1056 317.456 30.1913 317.264 29.5494 318.373C29.0004 319.322 28.8889 321.275 29.5494 322.199C27.1243 335.324 33.3853 339.39 35.5473 345.925C35.5956 347.374 35.6476 348.805 35.6957 350.202C35.7434 351.588 36.254 352.413 36.8483 352.695C37.1362 353.467 37.6557 354 38.1846 354C39.0711 354 39.702 352.76 39.7493 351.295C39.9231 345.923 40.4571 336.593 43.5538 337.089C50.1502 338.143 50.4554 332.647 52.157 329.36C53.4956 326.774 53.2557 323.104 51.3251 324.143V324.143Z" fill="#BEBEBE"/>
</svg>
