<svg width="243" height="185" viewBox="0 0 243 185" fill="none" xmlns="http://www.w3.org/2000/svg">
<path d="M140.63 140.044L138.128 142.06L137.326 142.71C137.254 142.612 137.172 142.509 137.09 142.416C136.304 141.524 135.173 141.014 133.991 141.014H113.91C113.844 140.673 113.828 140.328 113.859 139.982C113.946 138.982 114.424 138.018 115.267 137.342L129.372 125.972C131.006 124.652 133.4 124.915 134.716 126.559L141.216 134.681C142.531 136.326 142.269 138.724 140.63 140.044Z" fill="#7CB5D5"/>
<path d="M136.427 141.014H111.629C110.981 141.014 110.349 141.169 109.784 141.458L109.645 141.35C109.398 141.159 109.178 140.942 108.998 140.71C107.924 139.369 107.857 137.425 108.946 136.002L115.272 127.741C116.551 126.071 118.941 125.756 120.605 127.04L134.947 138.101C135.594 138.596 136.031 139.261 136.257 139.983C136.36 140.318 136.422 140.664 136.427 141.014Z" fill="#7CB5D5"/>
<path d="M156.712 13.1289H9.77333C4.38311 13.1289 0 17.5275 0 22.9368V175.036C0 180.446 4.38311 184.844 9.77333 184.844H156.712C162.102 184.844 166.486 180.446 166.486 175.036V22.9368C166.486 17.5275 162.102 13.1289 156.712 13.1289ZM165.458 175.036C165.458 179.879 161.537 183.813 156.712 183.813H9.77333C4.94833 183.813 1.02769 179.879 1.02769 175.036V22.9368C1.02769 18.0947 4.94832 14.1602 9.77333 14.1602H156.712C161.537 14.1602 165.458 18.0947 165.458 22.9368V175.036Z" fill="#3F3D56"/>
<path d="M66.3003 23.1074H51.8818C51.1573 23.1074 50.5664 23.7004 50.5664 24.4275C50.5664 25.1597 51.1573 25.7528 51.8818 25.7528H66.3003C67.0249 25.7528 67.6158 25.1598 67.6158 24.4275C67.6158 23.7004 67.0249 23.1074 66.3003 23.1074Z" fill="#7CB5D5"/>
<path d="M90.4527 23.1074H76.0342C75.3097 23.1074 74.7188 23.7004 74.7188 24.4275C74.7188 25.1597 75.3097 25.7528 76.0342 25.7528H90.4527C91.1772 25.7528 91.7681 25.1598 91.7681 24.4275C91.7681 23.7004 91.1772 23.1074 90.4527 23.1074Z" fill="#7CB5D5"/>
<path d="M114.601 23.1074H100.183C99.4581 23.1074 98.8672 23.7004 98.8672 24.4275C98.8672 25.1597 99.4581 25.7528 100.183 25.7528H114.601C115.326 25.7528 115.917 25.1598 115.917 24.4275C115.917 23.7004 115.326 23.1074 114.601 23.1074Z" fill="#7CB5D5"/>
<path d="M45.0139 49.4824H26.9266C24.6862 49.4824 22.8672 51.3079 22.8672 53.5561V63.9725C22.8672 66.2208 24.6862 68.0463 26.9266 68.0463H45.0139C47.2542 68.0463 49.0732 66.2208 49.0732 63.9725V53.5561C49.0732 51.3078 47.2543 49.4824 45.0139 49.4824Z" fill="#F2F2F2"/>
<path d="M45.0139 76.8125H26.9266C24.6862 76.8125 22.8672 78.6379 22.8672 80.8862V91.3026C22.8672 93.5509 24.6862 95.3763 26.9266 95.3763H45.0139C47.2542 95.3763 49.0732 93.5509 49.0732 91.3026V80.8862C49.0732 78.6379 47.2543 76.8125 45.0139 76.8125Z" fill="#7CB5D5"/>
<path d="M45.0139 104.143H26.9266C24.6862 104.143 22.8672 105.968 22.8672 108.216V118.633C22.8672 120.881 24.6862 122.706 26.9266 122.706H45.0139C47.2542 122.706 49.0732 120.881 49.0732 118.633V108.216C49.0732 105.968 47.2543 104.143 45.0139 104.143Z" fill="#7CB5D5"/>
<path d="M85.092 49.4824H67.0047C64.7643 49.4824 62.9453 51.3079 62.9453 53.5561V63.9725C62.9453 66.2208 64.7643 68.0463 67.0047 68.0463H85.092C87.3324 68.0463 89.1514 66.2208 89.1514 63.9725V53.5561C89.1514 51.3078 87.3324 49.4824 85.092 49.4824Z" fill="#7CB5D5"/>
<path d="M85.092 76.8125H67.0047C64.7643 76.8125 62.9453 78.6379 62.9453 80.8862V91.3026C62.9453 93.5509 64.7643 95.3763 67.0047 95.3763H85.092C87.3324 95.3763 89.1514 93.5509 89.1514 91.3026V80.8862C89.1514 78.6379 87.3324 76.8125 85.092 76.8125Z" fill="#F2F2F2"/>
<path d="M125.174 76.8125H107.087C104.846 76.8125 103.027 78.6379 103.027 80.8862V91.3026C103.027 93.5509 104.846 95.3763 107.087 95.3763H125.174C127.414 95.3763 129.233 93.5509 129.233 91.3026V80.8862C129.233 78.6379 127.414 76.8125 125.174 76.8125Z" fill="#7CB5D5"/>
<path d="M138.382 154.678H28.1004C23.5118 154.678 19.7812 158.421 19.7812 163.026V170.565C19.7812 175.17 23.5118 178.914 28.1004 178.914H138.382C142.97 178.914 146.701 175.17 146.701 170.565V163.026C146.701 158.421 142.97 154.678 138.382 154.678Z" fill="#F2F2F2"/>
<path d="M142.238 139.998C142.151 139.89 142.063 139.776 141.971 139.673C140.989 138.559 139.581 137.92 138.101 137.92C128.784 139.309 119.271 139.281 109.573 137.92C108.638 137.92 107.733 138.178 106.942 138.647C106.485 138.915 106.063 139.261 105.704 139.673C104.722 140.782 104.265 142.267 104.445 143.742L108.951 180.297C109.27 182.891 111.474 184.845 114.074 184.845H133.6C136.2 184.845 138.405 182.891 138.723 180.297L143.23 143.742C143.394 142.406 143.034 141.065 142.238 139.998Z" fill="white"/>
<path d="M142.238 139.998C142.151 139.89 142.063 139.776 141.971 139.673C140.989 138.559 139.581 137.92 138.101 137.92C128.592 138.943 119.082 138.943 109.573 137.92C108.638 137.92 107.733 138.178 106.942 138.647C106.485 138.915 106.063 139.261 105.704 139.673C104.722 140.782 104.265 142.267 104.445 143.742L108.951 180.297C109.069 181.272 109.455 182.153 110.025 182.875C110.976 184.077 112.435 184.84 114.054 184.845H133.6C135.414 184.845 137.038 183.891 137.958 182.437C138.358 181.803 138.626 181.081 138.723 180.297L143.23 143.742C143.394 142.406 143.034 141.065 142.238 139.998ZM142.207 143.613L137.706 180.168C137.706 180.178 137.701 180.194 137.701 180.204C137.428 182.267 135.671 183.814 133.6 183.814H114.074C112.003 183.814 110.246 182.267 109.974 180.204C109.974 180.194 109.968 180.178 109.968 180.168L105.467 143.613C105.323 142.432 105.688 141.246 106.474 140.354C106.829 139.952 107.255 139.627 107.728 139.395C108.293 139.106 108.925 138.951 109.573 138.951C119.082 140.808 128.592 140.808 138.101 138.951C139.283 138.951 140.414 139.462 141.2 140.354C141.282 140.447 141.364 140.55 141.436 140.648C142.058 141.499 142.336 142.561 142.207 143.613Z" fill="#3F3D56"/>
<path d="M138.222 180.205L137.955 182.438C137.035 183.892 135.412 184.846 133.598 184.846H114.051C112.433 184.841 110.973 184.078 110.023 182.876L109.961 180.205H138.222Z" fill="#3F3D56"/>
<path d="M158.791 60.4793L134.196 77.4408L131.164 74.1513L153.789 55.127L158.791 60.4793Z" fill="#A0616A"/>
<path d="M132.302 80.3312C134.722 78.3801 135.749 75.6292 134.594 74.1868C133.44 72.7445 130.542 73.1569 128.121 75.1079C125.701 77.059 124.674 79.8099 125.828 81.2523C126.983 82.6946 129.881 82.2822 132.302 80.3312Z" fill="#A0616A"/>
<path d="M171.42 182.034L166.747 182.033L164.523 163.943L171.421 163.944L171.42 182.034Z" fill="#A0616A"/>
<path d="M155.41 181.928C155.264 182.174 155.188 182.968 155.188 183.254C155.188 184.133 155.898 184.845 156.774 184.845H171.246C171.844 184.845 172.328 184.359 172.328 183.76V183.155C172.328 183.155 173.044 181.338 171.57 179.098C171.57 179.098 169.738 180.851 167.001 178.104L166.194 176.637L160.35 180.925L157.111 181.326C156.403 181.413 155.774 181.312 155.41 181.928Z" fill="#2F2E41"/>
<path d="M187.213 182.034L182.54 182.033L180.316 163.943L187.214 163.944L187.213 182.034Z" fill="#A0616A"/>
<path d="M171.203 181.928C171.057 182.174 170.98 182.968 170.98 183.254C170.98 184.133 171.691 184.845 172.567 184.845H187.039C187.637 184.845 188.121 184.359 188.121 183.76V183.155C188.121 183.155 188.837 181.338 187.363 179.098C187.363 179.098 185.531 180.851 182.794 178.104L181.987 176.637L176.143 180.925L172.904 181.326C172.196 181.413 171.567 181.312 171.203 181.928Z" fill="#2F2E41"/>
<path d="M163.377 81.2064L158.023 132.783C158.023 132.783 161.771 167.973 162.574 167.973C163.377 167.973 164.18 168.637 163.377 169.38C162.574 170.122 161.503 170.66 162.574 170.66C163.645 170.66 163.775 170.332 163.71 171.436C163.645 172.54 162.842 173.346 162.842 173.346L173.817 172.54L172.478 136.544L177.564 107.801C177.564 107.801 179.17 167.705 179.706 168.242C180.241 168.779 180.241 167.436 180.241 168.779C180.241 170.122 179.706 170.66 179.706 170.66L179.68 173.346H187.648L198.979 98.6672L197.105 79.8633L163.377 81.2064Z" fill="#2F2E41"/>
<path d="M189.611 25.5996H179.974L174.193 27.0516C171.071 28.912 165.474 34.4488 165.615 38.0901L166.858 70.1919C166.858 70.1919 162.599 80.2642 163.402 80.2642C164.205 80.2642 160.3 83.4889 160.3 85.3693C160.3 87.2497 158.961 86.9811 159.764 87.787C160.567 88.5929 198.98 87.787 198.98 87.787C198.98 87.787 199.381 86.9811 199.381 85.638C199.381 84.2948 200.178 83.4953 200.178 83.4953V80.9729L197.775 72.2066L202.058 32.9869L189.611 25.5996Z" fill="#7CB5D5"/>
<path d="M141.512 64.7796L144.793 70.4811C146.585 69.3923 155.24 64.1743 156.737 64.0529C157.301 64.0071 157.427 63.9008 157.452 63.8691C157.477 63.8379 157.47 63.7679 157.455 63.6561C157.432 63.4829 157.396 63.221 157.599 62.9974C157.895 62.6696 158.155 62.867 158.281 62.9617C158.476 63.1092 158.803 63.356 159.855 63.2064C160.124 63.1681 160.293 63.1354 160.4 63.1097L160.388 63.0986C160.158 62.8816 159.774 62.5185 159.746 61.9354C159.721 61.4132 159.715 61.2732 159.904 61.183C160.079 61.1009 160.216 61.2243 160.297 61.2978C160.434 61.4232 160.66 61.6282 161.125 61.6106C162.314 61.2203 173.365 45.2081 175.522 38.8293C176.06 37.241 175.993 35.766 175.325 34.4462C174.044 31.9154 170.907 30.6477 170.133 30.3672L154.446 52.4616L141.512 64.7796Z" fill="#7CB5D5"/>
<path d="M184.962 23.5327C190.695 23.5327 195.342 18.869 195.342 13.116C195.342 7.36295 190.695 2.69922 184.962 2.69922C179.229 2.69922 174.582 7.36295 174.582 13.116C174.582 18.869 179.229 23.5327 184.962 23.5327Z" fill="#A0616A"/>
<path d="M197.517 6.78583C196.605 4.8227 194.584 3.29733 192.428 3.40862C192.558 2.86372 192.317 2.28058 191.93 1.877C191.543 1.47345 191.027 1.2209 190.51 1.00884C187.956 -0.039293 185.08 -0.279751 182.388 0.329859C182.118 -0.0456048 178.276 0.902017 178.736 1.10319C179.195 1.3044 177.515 1.78494 177.436 2.28162C177.349 2.8258 176.775 3.15942 176.232 3.2443C175.689 3.32922 175.129 3.24657 174.59 3.34974C173.502 3.55763 174.719 4.89912 174.704 6.00979C174.688 7.12049 173.442 7.88164 174.523 8.12015C175.638 8.36634 174.095 10.3491 175.217 10.1351C177.756 9.65102 188.844 8.61894 189.831 11.0161C190.105 11.6817 190.277 12.4358 190.815 12.9119C191.548 13.5599 192.769 13.5079 193.369 14.2818C193.852 14.9057 193.713 15.8217 193.356 16.5259C192.999 17.23 192.455 17.8297 192.131 18.5501C191.697 19.5159 191.699 20.5916 191.823 21.6596C191.919 21.6094 192.067 21.5592 192.288 21.5089L192.192 21.521C194.963 19.4961 196.998 16.4807 197.844 13.1479C198.377 11.0489 198.43 8.74896 197.517 6.78583Z" fill="#2F2E41"/>
<path d="M204.817 93.5723H186.727C184.628 93.5723 182.926 95.2802 182.926 97.387V107.806C182.926 109.913 184.628 111.62 186.727 111.62H204.817C206.916 111.62 208.618 109.913 208.618 107.806V97.387C208.618 95.2802 206.916 93.5723 204.817 93.5723Z" fill="#7CB5D5"/>
<path d="M208.425 64.4464L198.163 92.5683L193.793 91.6489L201.258 62.9902L208.425 64.4464Z" fill="#A0616A"/>
<path d="M198.285 96.0262C199.132 93.0288 198.382 90.1895 196.608 89.6846C194.835 89.1796 192.71 91.2002 191.863 94.1976C191.015 97.1951 191.766 100.034 193.539 100.539C195.313 101.044 197.437 99.0236 198.285 96.0262Z" fill="#A0616A"/>
<path d="M191.664 27.0527C191.664 27.0527 202.861 28.9586 205.538 35.137C208.215 41.3155 210.892 61.1939 210.089 61.9998C209.286 62.8057 208.483 61.9998 209.286 62.8057C210.089 63.6116 211.449 62.5498 210.234 64.0209C209.018 65.492 208.483 64.6861 208.483 65.2234C208.483 65.7606 209.553 65.6147 208.483 66.7621C207.412 67.9096 203.932 79.7293 203.932 79.7293L197.24 77.5802L198.578 59.5822L191.664 27.0527Z" fill="#7CB5D5"/>
<path d="M138.02 78.6191H119.93C117.831 78.6191 116.129 80.327 116.129 82.4338V92.8526C116.129 94.9594 117.831 96.6673 119.93 96.6673H138.02C140.119 96.6673 141.821 94.9594 141.821 92.8526V82.4338C141.821 80.327 140.119 78.6191 138.02 78.6191Z" fill="#3F3D56"/>
<path d="M105.345 144.623L105.332 145.654L142.231 146.121L142.244 145.09L105.345 144.623Z" fill="#3F3D56"/>
</svg>
