<svg width="276" height="273" viewBox="0 0 276 273" fill="none" xmlns="http://www.w3.org/2000/svg">
    <path d="M205.857 64.7621H204.362V23.7416C204.362 20.6238 203.749 17.5365 202.557 14.6561C201.365 11.7756 199.619 9.15837 197.417 6.95376C195.215 4.74915 192.601 3.00036 189.724 1.80723C186.848 0.6141 183.764 2.95056e-06 180.651 0H93.8539C87.5653 -1.39038e-05 81.5342 2.50131 77.0875 6.9537C72.6407 11.4061 70.1426 17.4449 70.1426 23.7415V248.783C70.1426 255.08 72.6407 261.119 77.0874 265.571C81.5342 270.024 87.5652 272.525 93.8538 272.525H180.65C186.939 272.525 192.97 270.024 197.417 265.571C201.864 261.119 204.362 255.08 204.362 248.784V93.9612H205.857L205.857 64.7621Z" fill="#3F3D56"/>
    <path d="M199.315 23.9072V248.618C199.315 253.32 197.449 257.83 194.128 261.155C190.807 264.481 186.303 266.349 181.607 266.349H94.3939C89.6975 266.349 85.1934 264.481 81.8725 261.155C78.5516 257.83 76.6859 253.32 76.6858 248.618V23.9072C76.6859 19.2048 78.5516 14.6949 81.8725 11.3698C85.1934 8.04463 89.6975 6.17654 94.3939 6.17645H104.974C104.454 7.4556 104.256 8.84307 104.397 10.2168C104.539 11.5906 105.015 12.9085 105.784 14.0546C106.554 15.2008 107.593 16.1401 108.81 16.7899C110.027 17.4396 111.385 17.78 112.764 17.781H162.489C163.868 17.78 165.226 17.4396 166.443 16.7898C167.66 16.14 168.699 15.2008 169.468 14.0546C170.238 12.9085 170.714 11.5905 170.855 10.2168C170.997 8.84307 170.799 7.4556 170.279 6.17645H181.607C186.303 6.17654 190.807 8.04463 194.128 11.3698C197.449 14.6949 199.315 19.2048 199.315 23.9072Z" fill="white"/>
    <path d="M113.917 67.7924H100.523C99.42 67.7911 98.362 67.3516 97.5818 66.5704C96.8015 65.7891 96.3626 64.7298 96.3613 63.6249V50.2147C96.3626 49.1098 96.8015 48.0505 97.5818 47.2692C98.362 46.488 99.42 46.0485 100.523 46.0472H113.917C115.02 46.0485 116.078 46.488 116.858 47.2692C117.639 48.0505 118.078 49.1098 118.079 50.2147V63.6249C118.078 64.7298 117.639 65.7891 116.858 66.5704C116.078 67.3516 115.02 67.7911 113.917 67.7924Z" fill="#A9E0FF"/>
    <path d="M144.697 67.7924H131.304C130.2 67.7911 129.142 67.3516 128.362 66.5704C127.582 65.7891 127.143 64.7298 127.142 63.6249V50.2147C127.143 49.1098 127.582 48.0505 128.362 47.2692C129.142 46.488 130.2 46.0485 131.304 46.0472H144.697C145.8 46.0485 146.858 46.488 147.639 47.2692C148.419 48.0505 148.858 49.1098 148.859 50.2147V63.6249C148.858 64.7298 148.419 65.7891 147.639 66.5704C146.858 67.3516 145.8 67.7911 144.697 67.7924Z" fill="#A9E0FF"/>
    <path d="M175.477 67.7924H162.084C160.981 67.7911 159.923 67.3516 159.142 66.5704C158.362 65.7891 157.923 64.7298 157.922 63.6249V50.2147C157.923 49.1098 158.362 48.0505 159.142 47.2692C159.923 46.488 160.981 46.0485 162.084 46.0472H175.477C176.581 46.0485 177.639 46.488 178.419 47.2692C179.199 48.0505 179.638 49.1098 179.639 50.2147V63.6249C179.638 64.7298 179.199 65.7891 178.419 66.5704C177.639 67.3516 176.581 67.7911 175.477 67.7924Z" fill="#E6E6E6"/>
    <path d="M113.917 102.059H100.523C99.42 102.058 98.362 101.618 97.5818 100.837C96.8015 100.056 96.3626 98.9963 96.3613 97.8914V84.4812C96.3626 83.3763 96.8015 82.317 97.5818 81.5357C98.362 80.7544 99.42 80.315 100.523 80.3137H113.917C115.02 80.315 116.078 80.7544 116.858 81.5357C117.639 82.317 118.078 83.3763 118.079 84.4812V97.8914C118.078 98.9963 117.639 100.056 116.858 100.837C116.078 101.618 115.02 102.058 113.917 102.059Z" fill="#E6E6E6"/>
    <path d="M144.697 102.059H131.304C130.2 102.058 129.142 101.618 128.362 100.837C127.582 100.056 127.143 98.9963 127.142 97.8914V84.4812C127.143 83.3763 127.582 82.317 128.362 81.5357C129.142 80.7544 130.2 80.315 131.304 80.3137H144.697C145.8 80.315 146.858 80.7544 147.639 81.5357C148.419 82.317 148.858 83.3763 148.859 84.4812V97.8914C148.858 98.9963 148.419 100.056 147.639 100.837C146.858 101.618 145.8 102.058 144.697 102.059Z" fill="#E6E6E6"/>
    <path d="M175.477 102.059H162.084C160.981 102.058 159.923 101.618 159.142 100.837C158.362 100.056 157.923 98.9963 157.922 97.8914V84.4812C157.923 83.3763 158.362 82.317 159.142 81.5357C159.923 80.7544 160.981 80.315 162.084 80.3137H175.477C176.581 80.315 177.639 80.7544 178.419 81.5357C179.199 82.317 179.638 83.3763 179.639 84.4812V97.8914C179.638 98.9963 179.199 100.056 178.419 100.837C177.639 101.618 176.581 102.058 175.477 102.059Z" fill="#E6E6E6"/>
    <path d="M113.917 136.319H100.523C99.42 136.318 98.362 135.878 97.5818 135.097C96.8015 134.316 96.3626 133.256 96.3613 132.151V118.741C96.3626 117.636 96.8015 116.577 97.5818 115.796C98.362 115.014 99.42 114.575 100.523 114.574H113.917C115.02 114.575 116.078 115.014 116.858 115.796C117.639 116.577 118.078 117.636 118.079 118.741V132.151C118.078 133.256 117.639 134.316 116.858 135.097C116.078 135.878 115.02 136.318 113.917 136.319Z" fill="#E6E6E6"/>
    <path d="M144.697 136.319H131.304C130.2 136.318 129.142 135.878 128.362 135.097C127.582 134.316 127.143 133.256 127.142 132.151V118.741C127.143 117.636 127.582 116.577 128.362 115.796C129.142 115.014 130.2 114.575 131.304 114.574H144.697C145.8 114.575 146.858 115.014 147.639 115.796C148.419 116.577 148.858 117.636 148.859 118.741V132.151C148.858 133.256 148.419 134.316 147.639 135.097C146.858 135.878 145.8 136.318 144.697 136.319Z" fill="#E6E6E6"/>
    <path d="M175.477 136.319H162.084C160.981 136.318 159.923 135.878 159.142 135.097C158.362 134.316 157.923 133.256 157.922 132.151V118.741C157.923 117.636 158.362 116.577 159.142 115.796C159.923 115.014 160.981 114.575 162.084 114.574H175.477C176.581 114.575 177.639 115.014 178.419 115.796C179.199 116.577 179.638 117.636 179.639 118.741V132.151C179.638 133.256 179.199 134.316 178.419 135.097C177.639 135.878 176.581 136.318 175.477 136.319Z" fill="#E6E6E6"/>
    <path d="M113.917 170.585H100.523C99.42 170.584 98.362 170.145 97.5818 169.363C96.8015 168.582 96.3626 167.523 96.3613 166.418V153.008C96.3626 151.903 96.8015 150.843 97.5818 150.062C98.362 149.281 99.42 148.841 100.523 148.84H113.917C115.02 148.841 116.078 149.281 116.858 150.062C117.639 150.843 118.078 151.903 118.079 153.008V166.418C118.078 167.523 117.639 168.582 116.858 169.363C116.078 170.145 115.02 170.584 113.917 170.585Z" fill="#E6E6E6"/>
    <path d="M144.697 170.585H131.304C130.2 170.584 129.142 170.145 128.362 169.363C127.582 168.582 127.143 167.523 127.142 166.418V153.008C127.143 151.903 127.582 150.843 128.362 150.062C129.142 149.281 130.2 148.841 131.304 148.84H144.697C145.8 148.841 146.858 149.281 147.639 150.062C148.419 150.843 148.858 151.903 148.859 153.008V166.418C148.858 167.523 148.419 168.582 147.639 169.363C146.858 170.145 145.8 170.584 144.697 170.585Z" fill="#E6E6E6"/>
    <path d="M175.477 170.585H162.084C160.981 170.584 159.923 170.145 159.142 169.363C158.362 168.582 157.923 167.523 157.922 166.418V153.008C157.923 151.903 158.362 150.843 159.142 150.062C159.923 149.281 160.981 148.841 162.084 148.84H175.477C176.581 148.841 177.639 149.281 178.419 150.062C179.199 150.843 179.638 151.903 179.639 153.008V166.418C179.638 167.523 179.199 168.582 178.419 169.363C177.639 170.145 176.581 170.584 175.477 170.585Z" fill="#E6E6E6"/>
    <path d="M153.311 166.612H139.918C138.765 166.61 137.66 166.151 136.844 165.335C136.029 164.518 135.57 163.411 135.569 162.257V148.847C135.57 147.692 136.029 146.585 136.844 145.769C137.66 144.952 138.765 144.493 139.918 144.492H153.311C154.464 144.493 155.57 144.953 156.385 145.769C157.201 146.585 157.659 147.692 157.661 148.847V162.257C157.659 163.411 157.201 164.518 156.385 165.335C155.57 166.151 154.464 166.61 153.311 166.612Z" fill="#A9E0FF"/>
    <path d="M89.9416 201.218C90.4478 200.965 90.8926 200.605 91.2447 200.162C91.5968 199.719 91.8477 199.204 91.9795 198.654C92.1114 198.103 92.1211 197.53 92.0079 196.976C91.8948 196.421 91.6616 195.898 91.3246 195.443L94.2168 167.13H87.9665L85.6681 194.776C84.9427 195.394 84.4687 196.256 84.3359 197.2C84.2031 198.144 84.4207 199.104 84.9474 199.897C85.4742 200.691 86.2735 201.264 87.194 201.508C88.1144 201.751 89.092 201.648 89.9416 201.218Z" fill="#FFB8B8"/>
    <path d="M95.6805 151.504C100.564 151.504 104.523 147.54 104.523 142.65C104.523 137.76 100.564 133.796 95.6805 133.796C90.7967 133.796 86.8376 137.76 86.8376 142.65C86.8376 147.54 90.7967 151.504 95.6805 151.504Z" fill="#FFB8B8"/>
    <path d="M97.3453 183.619C96.9913 183.618 96.6472 183.502 96.3656 183.287C96.0841 183.072 95.8807 182.771 95.7867 182.429C95.0782 179.852 93.2349 175.494 90.3082 169.477C89.6479 168.117 89.2822 166.632 89.2352 165.12C89.1882 163.608 89.4609 162.104 90.0355 160.705C90.6101 159.306 91.4735 158.045 92.5692 157.004C93.6649 155.963 94.9681 155.165 96.3932 154.664C97.7437 154.186 99.1761 153.985 100.606 154.072C102.035 154.158 103.433 154.531 104.716 155.168C106 155.805 107.142 156.693 108.077 157.78C109.011 158.867 109.718 160.13 110.156 161.496C112.425 168.617 112.315 176.245 112.163 179.194C112.144 179.549 112.009 179.888 111.779 180.159C111.55 180.43 111.237 180.619 110.89 180.695L97.6928 183.581C97.5786 183.606 97.4621 183.619 97.3453 183.619Z" fill="#CCCCCC"/>
    <path d="M110.126 267.697L114.54 267.696L116.64 250.649L110.125 250.65L110.126 267.697Z" fill="#FFB8B8"/>
    <path d="M123.052 271.8L109.18 271.801L109.18 266.434L117.692 266.434C118.396 266.433 119.093 266.572 119.743 266.842C120.394 267.112 120.984 267.507 121.482 268.005C121.98 268.504 122.375 269.095 122.644 269.746C122.914 270.397 123.052 271.095 123.052 271.8Z" fill="#2F2E41"/>
    <path d="M65.9883 261.969L69.8564 264.098L79.8994 250.173L74.1905 247.031L65.9883 261.969Z" fill="#FFB8B8"/>
    <path d="M75.3413 271.801L63.1849 265.109L65.7671 260.406L73.2267 264.512C74.4724 265.198 75.395 266.351 75.7915 267.718C76.1881 269.085 76.0261 270.553 75.3413 271.801Z" fill="#2F2E41"/>
    <path d="M109.919 258.235C109.526 258.234 109.146 258.091 108.851 257.831C108.556 257.57 108.365 257.212 108.314 256.821L102.794 214.229C102.77 214.041 102.686 213.865 102.556 213.727C102.426 213.588 102.256 213.495 102.069 213.46C101.883 213.424 101.69 213.449 101.518 213.529C101.347 213.61 101.205 213.743 101.113 213.91L78.1075 255.702C77.9176 256.044 77.6118 256.305 77.2456 256.44C76.8794 256.574 76.4771 256.573 76.1119 256.436L71.0973 254.523C70.8956 254.446 70.7113 254.329 70.5552 254.18C70.3991 254.031 70.2744 253.852 70.1883 253.654C70.1022 253.455 70.0566 253.242 70.0541 253.026C70.0515 252.81 70.0921 252.595 70.1735 252.395L86.1102 213.196C86.1506 213.096 86.1779 212.992 86.1916 212.885C88.3501 196.157 93.8422 187.65 95.474 185.441C95.5931 185.279 95.6716 185.09 95.7026 184.891C95.7337 184.692 95.7165 184.489 95.6525 184.298L95.4282 183.624C95.3386 183.356 95.3202 183.07 95.3749 182.793C95.4295 182.517 95.5554 182.259 95.7399 182.046C101.62 175.34 111.868 178.999 111.971 179.037L112.022 179.056L112.055 179.1C123.546 194.88 119.297 246.132 118.329 256.246C118.293 256.626 118.123 256.981 117.851 257.249C117.579 257.516 117.221 257.678 116.84 257.706L110.045 258.23C110.003 258.233 109.961 258.235 109.919 258.235Z" fill="#2F2E41"/>
    <path d="M130.058 152.935C130.014 153.13 129.985 153.327 129.972 153.526L114.506 162.46L110.746 160.293L106.739 165.546L113.022 170.03C113.529 170.392 114.14 170.58 114.763 170.565C115.387 170.55 115.988 170.332 116.477 169.946L132.426 157.348C133.145 157.615 133.929 157.656 134.673 157.466C135.416 157.275 136.084 156.863 136.588 156.283C137.092 155.704 137.408 154.984 137.493 154.221C137.579 153.457 137.43 152.685 137.067 152.008C136.704 151.331 136.143 150.781 135.46 150.431C134.777 150.081 134.004 149.947 133.243 150.048C132.482 150.148 131.77 150.478 131.201 150.994C130.632 151.51 130.233 152.187 130.058 152.935Z" fill="#FFB8B8"/>
    <path d="M113.989 162.883L108.99 169.37C108.848 169.555 108.668 169.706 108.462 169.815C108.255 169.923 108.028 169.986 107.796 169.999C107.564 170.011 107.331 169.974 107.114 169.889C106.898 169.803 106.702 169.672 106.54 169.504L100.882 163.621C99.9431 162.886 99.3335 161.81 99.1865 160.626C99.0395 159.443 99.367 158.25 100.097 157.308C100.828 156.366 101.901 155.752 103.082 155.601C104.264 155.45 105.457 155.775 106.4 156.503L113.497 160.477C113.7 160.59 113.877 160.747 114.014 160.935C114.151 161.123 114.247 161.339 114.293 161.567C114.34 161.796 114.337 162.031 114.284 162.258C114.232 162.486 114.131 162.699 113.989 162.883Z" fill="#CCCCCC"/>
    <path d="M94.6147 174.153L86.5622 172.697C86.3331 172.656 86.1156 172.565 85.9245 172.432C85.7335 172.299 85.5733 172.126 85.4549 171.925C85.3366 171.725 85.2628 171.501 85.2387 171.269C85.2146 171.037 85.2406 170.803 85.3151 170.582L87.9256 162.843C88.1439 161.67 88.8177 160.632 89.7992 159.957C90.7807 159.281 91.9898 159.022 93.1614 159.237C94.333 159.453 95.3715 160.125 96.0492 161.106C96.727 162.086 96.9885 163.296 96.7767 164.47L96.522 172.608C96.5146 172.841 96.4572 173.07 96.3536 173.278C96.25 173.487 96.1027 173.671 95.9217 173.818C95.7407 173.964 95.5303 174.07 95.3047 174.128C95.0792 174.186 94.8439 174.195 94.6148 174.153H94.6147Z" fill="#CCCCCC"/>
    <path d="M97.0802 140.613C99.353 142.171 102.337 143.772 104.659 142.113C105.385 141.56 105.912 140.785 106.162 139.906C106.412 139.028 106.371 138.091 106.045 137.238C104.933 134.055 101.879 132.654 98.9592 131.58C95.1628 130.184 91.0291 129.073 87.11 130.073C83.1909 131.073 79.7272 134.872 80.4347 138.859C81.0037 142.065 84.0243 144.733 83.5955 147.961C83.1639 151.21 79.5149 152.92 76.2934 153.501C73.0719 154.082 69.467 154.268 67.1518 156.585C64.1984 159.541 64.9359 164.824 67.715 167.944C70.494 171.065 74.6877 172.479 78.7514 173.441C84.1356 174.715 89.959 175.385 95.0726 173.27C100.186 171.156 104.166 165.464 102.684 160.127C102.059 157.872 100.585 155.967 99.16 154.112C97.7355 152.257 96.293 150.317 95.7496 148.042C95.2968 146.145 95.632 143.943 96.888 142.521C97.1164 142.272 97.2602 141.956 97.2987 141.621C97.3371 141.285 97.2683 140.945 97.102 140.651L97.0802 140.613Z" fill="#2F2E41"/>
    <path d="M186.992 268.286H182.407L180.226 250.579H186.993L186.992 268.286Z" fill="#FFB8B8"/>
    <path d="M179.132 266.975H187.974V272.549H173.564C173.564 271.817 173.708 271.092 173.988 270.416C174.268 269.739 174.678 269.125 175.195 268.607C175.712 268.09 176.326 267.679 177.001 267.399C177.677 267.119 178.401 266.975 179.132 266.975Z" fill="#2F2E41"/>
    <path d="M204.195 268.286H199.61L197.429 250.579H204.196L204.195 268.286Z" fill="#FFB8B8"/>
    <path d="M196.335 266.975H205.178V272.549H190.768C190.768 271.817 190.912 271.092 191.192 270.416C191.471 269.739 191.882 269.125 192.398 268.607C192.915 268.09 193.529 267.679 194.205 267.399C194.88 267.119 195.604 266.975 196.335 266.975Z" fill="#2F2E41"/>
    <path d="M203.635 215.548C203.141 215.23 202.723 214.807 202.41 214.309C202.097 213.812 201.896 213.252 201.823 212.668C201.749 212.085 201.804 211.492 201.984 210.932C202.164 210.373 202.464 209.859 202.864 209.428L199.845 166.531L208.541 167.375L208.78 209.385C209.459 210.105 209.85 211.049 209.88 212.039C209.91 213.028 209.576 213.995 208.942 214.754C208.308 215.514 207.417 216.014 206.439 216.161C205.461 216.307 204.463 216.089 203.635 215.548H203.635Z" fill="#FFB8B8"/>
    <path d="M186.775 259.366L181.728 259.125C181.298 259.104 180.892 258.92 180.594 258.609C180.296 258.298 180.128 257.885 180.125 257.454L179.773 206.318C179.771 206.076 179.822 205.835 179.921 205.614C180.021 205.393 180.167 205.196 180.35 205.036C180.533 204.877 180.748 204.759 180.98 204.69C181.213 204.621 181.458 204.604 181.697 204.639L201.89 207.574C202.289 207.63 202.655 207.828 202.919 208.132C203.184 208.436 203.33 208.825 203.331 209.229L205.928 256.611C205.93 256.833 205.888 257.054 205.804 257.26C205.72 257.466 205.596 257.653 205.44 257.811C205.284 257.969 205.097 258.094 204.892 258.179C204.687 258.265 204.468 258.309 204.245 258.309H198.804C198.403 258.311 198.014 258.168 197.709 257.907C197.404 257.645 197.202 257.283 197.142 256.886L193.784 235.516C193.735 235.203 193.575 234.919 193.333 234.716C193.091 234.512 192.783 234.403 192.467 234.409C192.151 234.415 191.848 234.535 191.613 234.747C191.379 234.96 191.229 235.25 191.191 235.564L188.526 257.883C188.476 258.292 188.279 258.668 187.971 258.942C187.663 259.215 187.267 259.367 186.855 259.368C186.829 259.368 186.802 259.367 186.775 259.366Z" fill="#2F2E41"/>
    <path d="M190.329 209.231C185.878 206.755 182.401 206.105 180.725 205.937C180.502 205.916 180.286 205.849 180.09 205.742C179.893 205.634 179.721 205.487 179.583 205.311C179.442 205.133 179.338 204.929 179.278 204.71C179.218 204.491 179.203 204.262 179.235 204.037L184.073 168.07C184.352 165.966 185.163 163.968 186.431 162.267C187.698 160.565 189.38 159.217 191.315 158.35C193.188 157.488 195.25 157.12 197.305 157.281C199.36 157.443 201.34 158.128 203.056 159.272C203.222 159.382 203.385 159.495 203.544 159.61C205.52 161.06 207.024 163.063 207.865 165.367C208.706 167.67 208.847 170.172 208.27 172.556C205.303 184.709 204.284 204.633 204.11 208.504C204.096 208.834 203.985 209.153 203.791 209.419C203.597 209.686 203.328 209.89 203.018 210.004C201.193 210.668 199.266 211.011 197.324 211.019C194.878 211.034 192.469 210.418 190.329 209.231Z" fill="#A9E0FF"/>
    <path d="M201.343 201.31C201.139 200.993 200.97 200.581 200.849 200.105C200.729 199.629 200.659 199.101 200.646 198.559L200.007 173.582C199.944 171.107 200.307 168.67 201.028 166.74C201.748 164.809 202.774 163.523 203.908 163.128C205.042 162.733 206.204 163.259 207.169 164.602C208.134 165.946 208.835 168.013 209.135 170.405L211.942 192.736C212.058 193.668 211.999 194.661 211.776 195.499C211.554 196.336 211.186 196.949 210.755 197.202L202.772 201.872C202.53 202.015 202.275 202.039 202.028 201.941C201.78 201.844 201.546 201.628 201.343 201.31Z" fill="#A9E0FF"/>
    <path d="M194.376 153.466C199.449 153.466 203.561 149.349 203.561 144.269C203.561 139.19 199.449 135.072 194.376 135.072C189.303 135.072 185.19 139.19 185.19 144.269C185.19 149.349 189.303 153.466 194.376 153.466Z" fill="#FFB8B8"/>
    <path d="M161.09 162.339C161.136 162.541 161.166 162.746 161.179 162.953L176.5 171.5L180 168.5L185.312 175.439L176.959 181.4L158.631 166.923C157.883 167.2 157.069 167.242 156.297 167.045C155.524 166.847 154.831 166.419 154.307 165.817C153.784 165.215 153.456 164.467 153.367 163.674C153.279 162.881 153.433 162.08 153.81 161.377C154.188 160.674 154.77 160.102 155.479 159.738C156.188 159.375 156.992 159.236 157.782 159.34C158.572 159.444 159.312 159.787 159.903 160.323C160.494 160.859 160.908 161.562 161.09 162.339Z" fill="#A9E0FF"/>
    <path d="M161.09 162.339C161.136 162.541 161.166 162.746 161.179 162.953L166.5 165.817L170.5 168.5L165.5 172.233L158.631 166.923C157.883 167.2 157.069 167.242 156.297 167.045C155.524 166.847 154.831 166.419 154.307 165.817C153.784 165.215 153.456 164.467 153.367 163.674C153.279 162.881 153.433 162.08 153.81 161.377C154.188 160.674 154.77 160.102 155.479 159.738C156.188 159.375 156.992 159.236 157.782 159.34C158.572 159.444 159.312 159.787 159.903 160.323C160.494 160.859 160.908 161.562 161.09 162.339Z" fill="#FFB8B8"/>
    <path d="M177.818 171.444C177.792 171.194 177.821 170.941 177.905 170.705C177.989 170.468 178.124 170.253 178.302 170.076L186.479 161.887C187.289 161.075 188.37 160.593 189.514 160.533C190.659 160.473 191.784 160.839 192.675 161.561C193.566 162.283 194.158 163.309 194.337 164.442C194.517 165.575 194.271 166.735 193.647 167.697L187.824 176.681C187.581 177.056 187.199 177.318 186.763 177.411C186.326 177.504 185.871 177.42 185.496 177.177L178.576 172.68C178.365 172.544 178.188 172.362 178.057 172.148C177.926 171.934 177.844 171.693 177.818 171.444Z" fill="#A9E0FF"/>
    <path d="M200.876 151.545C199.162 153.373 195.98 152.392 195.757 149.895C195.739 149.701 195.74 149.506 195.76 149.313C195.876 148.207 196.514 147.203 196.361 146.035C196.326 145.744 196.218 145.467 196.047 145.23C194.681 143.399 191.476 146.049 190.187 144.392C189.397 143.375 190.326 141.775 189.719 140.639C188.919 139.14 186.548 139.88 185.062 139.059C183.408 138.145 183.507 135.604 184.595 134.058C185.923 132.174 188.251 131.168 190.551 131.023C192.85 130.878 195.133 131.5 197.279 132.338C199.718 133.289 202.137 134.605 203.637 136.752C205.462 139.363 205.638 142.873 204.725 145.927C204.17 147.784 202.275 150.053 200.876 151.545Z" fill="#2F2E41"/>
</svg>
