<svg width="232" height="261" viewBox="0 0 232 261" fill="none" xmlns="http://www.w3.org/2000/svg">
    <path d="M88.9485 159.848C90.2669 162.395 90.019 165.14 88.3949 165.977C86.7708 166.815 84.3855 165.428 83.0671 162.88C82.49 161.765 82.2131 160.612 82.2203 159.598L76.7695 148.733L81.9317 146.288L86.7572 157.259C87.5898 157.84 88.3714 158.732 88.9485 159.848Z" fill="#FFB6B6"/>
    <path d="M48.3852 257.884L53.0326 257.883L55.2434 239.989L48.3843 239.989L48.3852 257.884Z" fill="#FFB6B6"/>
    <path d="M64.3077 257.778C64.4524 258.022 64.5288 258.807 64.5288 259.09C64.5288 259.959 63.8226 260.664 62.9515 260.664H48.559C47.9647 260.664 47.4829 260.183 47.4829 259.59V258.992C47.4829 258.992 46.7709 257.194 48.2368 254.978C48.2368 254.978 50.0587 256.713 52.781 253.996L53.5838 252.544L59.3948 256.787L62.6158 257.182C63.3205 257.269 63.9453 257.169 64.3077 257.778Z" fill="#2F2E41"/>
    <path d="M26.5825 257.884L31.2299 257.883L33.4407 239.989L26.5815 239.989L26.5825 257.884Z" fill="#FFB6B6"/>
    <path d="M42.505 257.778C42.6497 258.022 42.7261 258.807 42.7261 259.09C42.7261 259.959 42.0199 260.664 41.1487 260.664H26.7563C26.162 260.664 25.6802 260.183 25.6802 259.59V258.992C25.6802 258.992 24.9682 257.194 26.4341 254.978C26.4341 254.978 28.2559 256.713 30.9782 253.996L31.781 252.544L37.5921 256.787L40.8131 257.182C41.5178 257.269 42.1425 257.169 42.505 257.778Z" fill="#2F2E41"/>
    <path d="M20.0037 152.302L18.0459 164.246L24.1369 202.9L25.6597 249.589H33.8833L38.0593 205.506L37.6242 176.407L47.4134 250.023H55.959L56.7674 157.731L20.0037 152.302Z" fill="#2F2E41"/>
    <path d="M30.228 90.4122H45.6235L58.9429 98.2299C56.8699 97.7039 55.2684 116.903 55.2139 133.867C55.2103 134.994 54.0913 136.29 54.1017 137.391C54.1106 138.34 55.247 139.098 55.2668 140.018C55.2852 140.878 55.3084 141.724 55.3367 142.552C55.3601 143.24 54.0713 144.151 54.1017 144.813C54.1405 145.658 55.5008 146.245 55.5513 147.04C55.8618 151.931 56.397 155.805 57.2026 157.731C57.2026 157.731 22.8318 167.286 20.2213 152.519C20.2213 152.519 20.3704 147.212 20.3495 139.882C20.3476 139.232 19.7928 138.642 19.7881 137.962C19.7846 137.457 20.3318 136.867 20.3264 136.348C20.322 135.921 19.7938 135.543 19.7881 135.108C19.7847 134.848 20.3041 134.533 20.3002 134.271C20.0915 120.333 19.154 102.768 15.8706 98.2299L30.228 90.4122V90.4122Z" fill="#A9E0FF"/>
    <path d="M45.4556 90.4123C45.4556 90.4123 55.4316 94.0313 58.597 96.9143C60.2791 98.4463 71.56 127.329 71.56 127.329L87.2286 154.569L79.0841 157.657L62.4234 132.541L55.0272 116.037L45.4556 90.4123Z" fill="#A9E0FF"/>
    <path d="M24.7636 160.878C26.2186 163.351 26.1204 166.104 24.5443 167.029C22.9681 167.953 20.5109 166.698 19.0559 164.226C18.419 163.143 18.0797 162.007 18.0317 160.994L11.998 150.44L17.0196 147.719L22.4347 158.412C23.2977 158.947 24.1267 159.796 24.7636 160.878Z" fill="#FFB6B6"/>
    <path d="M28.0528 103.876L23.7021 93.8868C23.7021 93.8868 13.4778 97.1441 13.4778 101.922C13.4778 101.922 7.38681 138.404 8.25696 147.525L13.9129 157.514L21.9618 151.216L16.9584 139.707L28.0528 103.876Z" fill="#A9E0FF"/>
    <path d="M19.105 168.774L24.237 158.6L30.2281 166.852L24.8361 172.063L19.105 168.774Z" fill="#2F2E41"/>
    <path d="M37.7807 87.5426C43.2798 87.5426 47.7378 83.0924 47.7378 77.6029C47.7378 72.1134 43.2798 67.6633 37.7807 67.6633C32.2816 67.6633 27.8237 72.1134 27.8237 77.6029C27.8237 83.0924 32.2816 87.5426 37.7807 87.5426Z" fill="#FFB6B6"/>
    <path d="M45.5451 66.4995C43.8148 65.9463 42.9961 63.8917 41.4133 63.0011C39.6629 62.0161 37.569 61.4013 35.6387 61.9586C34.4544 62.3005 33.4226 63.0563 32.2375 63.3953C32.0303 63.4546 31.8123 63.4955 31.5911 63.5165C30.3165 63.6377 29.2222 64.4008 28.5853 65.5095L28.5686 65.5381C28.1947 66.1769 27.6631 66.706 27.1914 67.2766C25.47 69.359 24.5382 72.0654 24.5574 74.7652C24.578 77.6673 25.6966 80.5487 27.6405 82.7067L28.1371 82.4782C29.3371 83.5129 30.5371 84.5477 31.7372 85.5825C31.0841 83.2301 30.425 80.7954 30.7707 78.379C31.1164 75.9625 32.7443 73.5516 35.1445 73.085C36.0525 72.9086 37.0101 73.0152 37.8915 72.7351C38.7729 72.4549 39.5848 71.5503 39.2824 70.6776C39.8282 72.118 41.8639 72.0329 43.265 72.6773C46.4009 74.1196 45.253 71.8906 47.9752 74.0109C48.8947 68.9237 52.4169 68.6965 45.5451 66.4995L45.5451 66.4995Z" fill="#2F2E41"/>
    <path d="M201.147 261H100.251C87.9484 261 77.9395 251.009 77.9395 238.727V22.2726C77.9395 9.99149 87.9484 0 100.251 0H201.147C213.449 0 223.458 9.99149 223.458 22.2726V238.727C223.458 251.009 213.449 261 201.147 261Z" fill="#3F3D56"/>
    <path d="M223.459 79.6191C222.938 79.6191 222.515 80.0417 222.515 80.5614V110.713C222.515 111.233 222.938 111.655 223.459 111.655C223.979 111.655 224.402 111.233 224.402 110.713V80.5614C224.402 80.0417 223.979 79.6191 223.459 79.6191Z" fill="#3F3D56"/>
    <path d="M221.335 22.2727V238.724C221.335 249.413 213 258.157 202.462 258.836H202.457C202.301 258.845 202.146 258.854 201.985 258.859C201.707 258.873 201.428 258.878 201.145 258.878C201.145 258.878 200.107 258.803 198.21 258.661C196.294 258.52 193.504 258.308 190.026 258.03C188.983 257.95 187.884 257.86 186.723 257.766C184.41 257.578 181.871 257.37 179.148 257.135C178.062 257.045 176.939 256.946 175.792 256.848C169.931 256.343 163.366 255.755 156.443 255.086C155.272 254.977 154.093 254.864 152.903 254.746C152.592 254.713 152.276 254.685 151.959 254.652C147.023 254.167 80.0635 241.249 80.0635 238.724V22.2727C80.0635 11.1402 89.1012 2.11829 100.253 2.11829H112.307C114.232 2.11829 115.78 3.61644 115.945 5.5339C115.959 5.66111 115.974 5.78829 115.997 5.9155C116.346 7.84239 118.116 9.18507 120.079 9.18507H181.319C183.282 9.18507 185.052 7.84239 185.401 5.9155C185.425 5.78829 185.439 5.66111 185.453 5.5339C185.618 3.61644 187.166 2.11829 189.092 2.11829H201.145C212.297 2.11829 221.335 11.1402 221.335 22.2727Z" fill="white"/>
    <path d="M77.4678 57.0054C76.9472 57.0054 76.5239 57.428 76.5239 57.9477V65.4856C76.5239 66.0052 76.9472 66.4278 77.4678 66.4278C77.9884 66.4278 78.4117 66.0052 78.4117 65.4856V57.9477C78.4117 57.428 77.9884 57.0054 77.4678 57.0054Z" fill="#3F3D56"/>
    <path d="M77.4678 79.6191C76.9472 79.6191 76.5239 80.0417 76.5239 80.5614V95.1661C76.5239 95.6857 76.9472 96.1083 77.4678 96.1083C77.9884 96.1083 78.4117 95.6857 78.4117 95.1661V80.5614C78.4117 80.0417 77.9884 79.6191 77.4678 79.6191Z" fill="#3F3D56"/>
    <path d="M77.4678 100.348C76.9472 100.348 76.5239 100.771 76.5239 101.291V115.895C76.5239 116.415 76.9472 116.838 77.4678 116.838C77.9884 116.838 78.4117 116.415 78.4117 115.895V101.291C78.4117 100.771 77.9884 100.348 77.4678 100.348Z" fill="#3F3D56"/>
    <path d="M111.978 5.41797H93.9274C93.8294 5.41797 93.75 5.49726 93.75 5.59507V7.59647C93.75 7.69428 93.8294 7.77356 93.9274 7.77356H111.978C112.076 7.77356 112.156 7.69428 112.156 7.59647V5.59507C112.156 5.49726 112.076 5.41797 111.978 5.41797Z" fill="#E6E6E6"/>
    <path d="M192.074 7.77353C193.117 7.77353 193.962 6.92982 193.962 5.88905C193.962 4.84829 193.117 4.00458 192.074 4.00458C191.032 4.00458 190.187 4.84829 190.187 5.88905C190.187 6.92982 191.032 7.77353 192.074 7.77353Z" fill="#E6E6E6"/>
    <path d="M197.266 7.77353C198.308 7.77353 199.153 6.92982 199.153 5.88905C199.153 4.84829 198.308 4.00458 197.266 4.00458C196.223 4.00458 195.378 4.84829 195.378 5.88905C195.378 6.92982 196.223 7.77353 197.266 7.77353Z" fill="#E6E6E6"/>
    <path d="M202.457 7.77353C203.5 7.77353 204.345 6.92982 204.345 5.88905C204.345 4.84829 203.5 4.00458 202.457 4.00458C201.415 4.00458 200.569 4.84829 200.569 5.88905C200.569 6.92982 201.415 7.77353 202.457 7.77353Z" fill="#E6E6E6"/>
    <path d="M190.732 54.3258H110.667C109.406 54.3258 108.379 53.3014 108.379 52.0423C108.379 50.7831 109.406 49.7587 110.667 49.7587H190.732C191.993 49.7587 193.02 50.7831 193.02 52.0423C193.02 53.3014 191.993 54.3258 190.732 54.3258Z" fill="#E6E6E6"/>
    <path d="M204.194 235.014H174.456C173.195 235.014 172.168 233.99 172.168 232.731C172.168 231.472 173.195 230.447 174.456 230.447H204.194C205.456 230.447 206.482 231.472 206.482 232.731C206.482 233.99 205.456 235.014 204.194 235.014Z" fill="#E6E6E6"/>
    <path d="M124.701 235.014H94.9629C93.7015 235.014 92.6753 233.99 92.6753 232.731C92.6753 231.472 93.7015 230.447 94.9629 230.447H124.701C125.963 230.447 126.989 231.472 126.989 232.731C126.989 233.99 125.963 235.014 124.701 235.014Z" fill="#E6E6E6"/>
    <path d="M206.482 60.4619H94.9165V61.0327H206.482V60.4619Z" fill="#3F3D56"/>
    <path d="M190.732 89.1505H110.667C109.406 89.1505 108.379 88.1261 108.379 86.867C108.379 85.6078 109.406 84.5834 110.667 84.5834H190.732C191.993 84.5834 193.02 85.6078 193.02 86.867C193.02 88.1261 191.993 89.1505 190.732 89.1505Z" fill="#E6E6E6"/>
    <path d="M206.482 95.2865H94.9165V95.8574H206.482V95.2865Z" fill="#3F3D56"/>
    <path d="M190.732 123.975H110.667C109.406 123.975 108.379 122.951 108.379 121.692C108.379 120.432 109.406 119.408 110.667 119.408H190.732C191.993 119.408 193.02 120.432 193.02 121.692C193.02 122.951 191.993 123.975 190.732 123.975Z" fill="#E6E6E6"/>
    <path d="M206.482 130.111H94.9165V130.682H206.482V130.111Z" fill="#3F3D56"/>
    <path d="M206.482 159.798H94.9165V160.369H206.482V159.798Z" fill="#3F3D56"/>
    <path d="M206.482 189.484H94.9165V190.055H206.482V189.484Z" fill="#3F3D56"/>
    <path d="M151.484 210.367C169.803 210.367 184.654 195.542 184.654 177.255C184.654 158.968 169.803 144.143 151.484 144.143C133.165 144.143 118.314 158.968 118.314 177.255C118.314 195.542 133.165 210.367 151.484 210.367Z" fill="#A9E0FF"/>
</svg>