<svg width="217" height="291" viewBox="0 0 217 291" fill="none" xmlns="http://www.w3.org/2000/svg">
    <path d="M145.005 68.9719V25.2848C145.005 11.3204 133.692 3.46499e-09 119.736 3.46499e-09H27.2344C13.2786 -0.000228689 1.96507 11.32 1.96484 25.2844V264.955C1.96484 278.92 13.2782 290.24 27.234 290.24H119.735C133.691 290.24 145.004 278.92 145.004 264.955V100.069H145.004C145.883 100.069 146.596 99.3561 146.596 98.4765L146.597 70.5646C146.597 69.685 145.884 68.9719 145.005 68.9719Z" fill="#3F3D56"/>
    <path d="M140.26 23.1825V266.239C125.492 265.332 110.872 282.274 121.102 285.413H26.7022C16.1171 285.415 7.5344 276.831 7.53125 266.239V23.1825C7.5344 12.5912 16.1166 4.00731 26.7014 4.00867H33.6632C31.7673 8.67383 47.0683 10.1916 48.2413 10.1931H96.5877C101.621 10.1867 113.763 5.09592 113.321 4.00867H121.098C131.679 4.01048 140.256 12.5916 140.26 23.1788L140.26 23.1825H140.26V23.1825Z" fill="white"/>
    <path d="M116.423 192.99H32.5377C31.6802 192.989 30.9853 192.294 30.9844 191.436V170.615C30.9855 169.757 31.6803 169.062 32.5377 169.061H116.423C117.28 169.062 117.975 169.757 117.976 170.615V191.436C117.975 192.294 117.28 192.989 116.423 192.99ZM32.5377 169.682C32.0231 169.683 31.606 170.1 31.6055 170.615V191.436C31.606 191.951 32.0231 192.368 32.5377 192.369H116.423C116.937 192.368 117.354 191.951 117.355 191.436V170.615C117.354 170.1 116.937 169.683 116.423 169.682H32.5377Z" fill="#E6E6E6"/>
    <path d="M116.423 233.117H32.5377C31.6802 233.116 30.9853 232.421 30.9844 231.563V210.742C30.9855 209.884 31.6803 209.189 32.5377 209.188H116.423C117.28 209.189 117.975 209.884 117.976 210.742V231.563C117.975 232.421 117.28 233.116 116.423 233.117V233.117ZM32.5377 209.809C32.0231 209.81 31.606 210.227 31.6055 210.742V231.563C31.606 232.078 32.0231 232.495 32.5377 232.496H116.423C116.937 232.495 117.354 232.078 117.355 231.563V210.742C117.354 210.227 116.937 209.81 116.423 209.809H32.5377Z" fill="#E6E6E6"/>
    <path d="M36.9837 107.154C37.078 107.049 37.1723 106.95 37.2694 106.849C39.6365 104.357 40.8811 102.881 43.7702 102.881C44.3062 102.881 46.6694 102.905 47.1591 102.954C49.1878 103.153 50.8103 103.765 52.0265 104.789C53.8222 106.302 54.7224 108.703 54.727 111.993C54.727 112.175 54.7377 112.515 54.7544 112.965C54.8613 115.59 56.6611 118.378 57.0105 119.325C57.5778 120.867 56.6612 125.807 55.9265 126.814C55.4996 127.403 55.4135 125.927 54.1014 126.204C53.8606 126.256 52.8529 128.205 52.5807 128.243C51.1738 128.429 49.7552 128.513 48.3362 128.494C48.1501 128.494 47.9636 128.494 47.7689 128.49H47.7669C47.0947 128.486 46.3768 128.467 45.6148 128.438C43.5916 128.396 41.5763 128.171 39.5937 127.765H39.5917C39.3301 127.706 39.0725 127.64 38.8211 127.568L38.775 127.556L38.7542 127.515C38.3955 126.784 38.191 125.988 38.1534 125.175C37.7698 125.693 37.487 126.278 37.32 126.901L37.2886 127.021L36.6536 124.962C35.7685 124.581 35.5229 125.977 34.9521 125.201C34.4061 124.391 34.0787 123.453 34.0016 122.479C33.7155 119.834 34.8023 109.588 36.9837 107.154L36.9837 107.154Z" fill="#2F2E41"/>
    <path d="M36.2783 192.225H48.8249L50.9288 181.816L51.6112 192.225H64.0824C64.0885 184.51 60.91 165.504 61.2903 165.344C61.6707 165.185 61.0965 164.678 61.0965 164.678L59.0624 157.689L58.8718 157.031H44.349C43.5132 157.817 42.7424 158.669 42.0439 159.579C41.8072 159.881 41.5603 160.207 41.3068 160.559C41.1309 160.808 40.9489 161.07 40.7669 161.345C39.1486 163.755 37.939 166.416 37.1868 169.221V169.223C37.0592 169.703 36.9461 170.194 36.8476 170.696V170.698C36.7599 171.144 36.6823 171.596 36.6215 172.059C36.5754 172.397 36.5358 172.738 36.5064 173.084C36.3319 174.998 36.393 176.927 36.6885 178.827L36.2783 192.225Z" fill="#2F2E41"/>
    <path d="M47.0196 121.413C51.0646 121.413 54.3438 118.132 54.3438 114.084C54.3438 110.037 51.0646 106.755 47.0196 106.755C42.9745 106.755 39.6953 110.037 39.6953 114.084C39.6953 118.132 42.9745 121.413 47.0196 121.413Z" fill="#FFB6B6"/>
    <path d="M42.207 104.976H49.3773C50.2447 104.774 51.1386 104.711 52.0257 104.789C53.1159 104.872 54.1573 105.275 55.0197 105.948C56.3028 106.978 57.0105 108.621 57.0105 110.573C57.007 111.197 57.1351 112.019 57.0105 112.63L56.1388 111.192L55.9084 112.63C55.2469 112.8 55.418 112.833 54.7536 112.965C54.5944 112.997 54.4333 113.028 54.272 113.058C53.4011 113.219 52.5706 113.527 52.5706 113.527L51.5817 113.414C50.9638 112.845 50.8601 111.441 50.5299 110.669C50.4654 110.894 50.3858 111.291 50.3082 111.721C50.1086 112.828 49.143 113.639 48.0187 113.64L47.9996 113.64C45.2486 113.637 45.2496 111.507 42.5787 110.848C42.4028 110.807 44.1987 123.264 44.0252 123.218L38.5239 119.679L39.2342 107.95C39.236 106.308 40.5659 104.978 42.207 104.976L42.207 104.976H42.207H42.207Z" fill="#2F2E41"/>
    <path d="M34.6902 104.326C33.3698 107.027 34.3302 107.634 37.0296 108.955C39.729 110.276 43.1453 111.811 44.4657 109.11C45.7861 106.409 43.4736 104.202 40.7742 102.881C41.3504 100.642 37.4903 99.6163 35.6168 102.985C36.2605 103.524 34.7783 104.986 35.0971 105.763C34.4393 105.231 35.5795 104.214 34.7403 104.317C34.7238 104.32 34.7081 104.322 34.6902 104.326L34.6902 104.326Z" fill="#2F2E41"/>
    <path d="M116.423 233.117H32.5377C31.6802 233.116 30.9853 232.421 30.9844 231.563V210.742C30.9855 209.884 31.6803 209.189 32.5377 209.188H116.423C117.28 209.189 117.975 209.884 117.976 210.742V231.563C117.975 232.421 117.28 233.116 116.423 233.117V233.117ZM32.5377 209.809C32.0231 209.81 31.606 210.227 31.6055 210.742V231.563C31.606 232.078 32.0231 232.495 32.5377 232.496H116.423C116.937 232.495 117.354 232.078 117.355 231.563V210.742C117.354 210.227 116.937 209.81 116.423 209.809H32.5377Z" fill="#E6E6E6"/>
    <path d="M48.8282 216.8C48.2276 216.8 47.7407 217.287 47.7407 217.888C47.7407 218.489 48.2276 218.976 48.8282 218.976H100.091C100.691 218.999 101.196 218.531 101.219 217.93C101.242 217.329 100.774 216.824 100.174 216.801C100.158 216.8 100.142 216.8 100.126 216.8H48.8282V216.8Z" fill="#E6E6E6"/>
    <path d="M48.8282 223.328C48.2276 223.328 47.7407 223.815 47.7407 224.416C47.7407 225.017 48.2276 225.504 48.8282 225.504H100.091C100.691 225.527 101.196 225.059 101.219 224.458C101.242 223.858 100.774 223.352 100.174 223.329C100.158 223.329 100.142 223.328 100.126 223.328H48.8282V223.328Z" fill="#E6E6E6"/>
    <path d="M116.423 70.6573H32.5377C31.6802 70.6564 30.9853 69.961 30.9844 69.103V48.2822C30.9855 47.4242 31.6803 46.729 32.5377 46.7279H116.423C117.28 46.729 117.975 47.4242 117.976 48.2822V69.1034C117.975 69.9613 117.28 70.6566 116.423 70.6577V70.6573ZM32.5377 47.3495C32.0231 47.3499 31.606 47.7672 31.6055 48.2822V69.1034C31.606 69.6184 32.0231 70.0357 32.5377 70.0361H116.423C116.937 70.0357 117.354 69.6184 117.355 69.1034V48.2822C117.354 47.7672 116.937 47.3499 116.423 47.3495H32.5377Z" fill="#E6E6E6"/>
    <path d="M58.48 54.3401C57.8794 54.3401 57.3926 54.8273 57.3926 55.4282C57.3926 56.0292 57.8794 56.5163 58.48 56.5163H109.743C110.343 56.5393 110.848 56.0711 110.871 55.4705C110.894 54.8699 110.426 54.3643 109.826 54.3413C109.81 54.3407 109.794 54.3404 109.778 54.3405H58.48V54.3401H58.48Z" fill="#E6E6E6"/>
    <path d="M58.48 60.8684C57.8794 60.8684 57.3926 61.3556 57.3926 61.9565C57.3926 62.5575 57.8794 63.0446 58.48 63.0446H109.743C110.343 63.0677 110.848 62.5994 110.871 61.9988C110.894 61.3982 110.426 60.8926 109.826 60.8696C109.81 60.869 109.794 60.8687 109.778 60.8688H58.48V60.8684H58.48Z" fill="#E6E6E6"/>
    <path d="M43.4115 65.2205C47.0148 65.2205 49.9358 62.2977 49.9358 58.6922C49.9358 55.0867 47.0148 52.1638 43.4115 52.1638C39.8082 52.1638 36.8872 55.0867 36.8872 58.6922C36.8872 62.2977 39.8082 65.2205 43.4115 65.2205Z" fill="#E6E6E6"/>
    <path d="M1.22066 74.323C0.547453 74.323 0 74.8708 0 75.5444V85.3157C0 85.9894 0.547449 86.5371 1.22066 86.5371C1.89387 86.5371 2.44132 85.9894 2.44132 85.3157V75.5444C2.44132 74.8708 1.89387 74.323 1.22066 74.323Z" fill="#3F3D56"/>
    <path d="M1.22066 103.637C0.547453 103.637 0 104.185 0 104.858V123.79C0 124.464 0.547449 125.012 1.22066 125.012C1.89387 125.012 2.44132 124.464 2.44132 123.79V104.858C2.44132 104.185 1.89387 103.637 1.22066 103.637Z" fill="#3F3D56"/>
    <path d="M1.22066 130.508C0.547453 130.508 0 131.056 0 131.729V150.661C0 151.335 0.547449 151.883 1.22066 151.883C1.89387 151.883 2.44132 151.335 2.44132 150.661V131.729C2.44132 131.056 1.89387 130.508 1.22066 130.508Z" fill="#3F3D56"/>
    <path d="M84.6745 113.039C86.9285 113.039 88.7558 111.21 88.7558 108.955C88.7558 106.699 86.9285 104.871 84.6745 104.871C82.4205 104.871 80.5933 106.699 80.5933 108.955C80.5933 111.21 82.4205 113.039 84.6745 113.039Z" fill="#E6E6E6"/>
    <path d="M102.689 108.289C102.526 108.007 102.232 107.836 101.906 107.836C101.579 107.836 101.285 108.007 101.122 108.289L99.367 112.222C98.671 107.642 96.086 103.675 92.8452 99.9215C92.6044 99.5091 92.1799 99.264 91.7024 99.264C91.2249 99.264 90.8004 99.5091 90.5596 99.9215C89.0269 106.787 84.8258 113.412 79.2801 119.914C78.797 121.119 79.6838 122.431 80.9815 122.431H107.199C108.856 122.431 110.031 120.813 109.518 119.236C108.55 114.799 106.528 110.998 102.689 108.289Z" fill="#A9E0FF"/>
    <path d="M94.7144 89.3527C81.887 89.3527 71.4512 99.7949 71.4512 112.63C71.4512 117.833 73.1653 122.644 76.063 126.523C80.3075 132.216 87.0865 135.908 94.7144 135.908C102.554 135.908 109.501 132.008 113.717 126.045C116.398 122.252 117.978 117.621 117.978 112.63C117.978 99.7949 107.542 89.3527 94.7144 89.3527V89.3527ZM113.264 125.261C109.219 131.191 102.412 135.091 94.7144 135.091C87.2253 135.091 80.585 131.403 76.5079 125.751C73.8387 122.06 72.2674 117.523 72.2674 112.63C72.2674 100.244 82.3359 90.1694 94.7144 90.1694C107.089 90.1694 117.161 100.244 117.161 112.63C117.161 117.31 115.725 121.659 113.264 125.261Z" fill="#E6E6E6"/>
    <path d="M71.3725 120.425C72.4379 118.84 74.1191 118.104 75.1276 118.782C76.136 119.461 76.0898 121.296 75.0244 122.882C74.5581 123.576 73.9737 124.107 73.3794 124.428L68.7807 131.091L65.7021 128.865L70.5623 122.533C70.6351 121.861 70.9062 121.119 71.3725 120.425L71.3725 120.425Z" fill="#FFB6B6"/>
    <path d="M70.4349 129.325L57.8483 143.79L56.6892 145.121L51.2979 143.169L42.9803 140.151H42.9762L36.7563 137.897C36.8217 137.346 36.9114 136.799 37.0298 136.256C37.1563 135.659 37.3114 135.067 37.4991 134.483C38.0623 132.719 38.8908 131.041 39.9601 129.513C40.3601 129.677 40.7601 129.873 41.1641 130.097L50.4367 134.116L55.5955 136.349L57.7055 134.291L66.7945 125.421L67.6433 126.332L67.6474 126.336L70.1819 129.056L70.186 129.06L70.4349 129.325H70.4349Z" fill="#A9E0FF"/>
    <path d="M60.954 160.252L39.8784 159.341C40.1927 158.692 39.7152 158.018 39.8743 157.45C40.0172 156.956 40.8171 156.56 40.8416 156.099C40.9885 153.599 40.609 149.532 37.7439 145.166C37.1521 144.26 36.8624 143.075 36.7277 141.756C36.593 140.458 36.6052 139.167 36.7562 137.897C36.8215 137.346 36.9113 136.799 37.0297 136.256C37.1562 135.659 37.3113 135.067 37.499 134.483C38.0622 132.719 38.8907 131.041 39.96 129.513C40.0294 129.407 40.1029 129.305 40.1763 129.203C40.5722 128.656 40.9967 128.129 41.4538 127.622C41.9802 127.038 42.5476 126.483 43.1475 125.96L44.0576 125.172L52.5222 124.021L56.9503 132.797L57.7054 134.291L58.5216 135.908C58.0523 138.11 57.8441 140.066 57.8115 141.85C57.7992 142.52 57.8115 143.165 57.8482 143.79C57.9013 144.766 57.9992 145.693 58.138 146.583C58.4727 148.768 59.0073 150.753 59.5093 152.762C59.7746 153.812 60.0276 154.865 60.2358 155.96C60.3337 156.474 61.3663 157.487 61.5132 157.953C61.7132 158.577 60.652 159.725 60.954 160.252V160.252Z" fill="#A9E0FF"/>
    <path d="M76.868 142.649C78.6318 141.917 80.4391 142.234 80.9048 143.357C81.3706 144.48 80.3183 145.984 78.5546 146.716C77.7825 147.037 77.0021 147.156 76.3296 147.095L68.8172 150.104L67.481 146.547L75.0285 143.958C75.4603 143.438 76.096 142.97 76.868 142.649L76.868 142.649Z" fill="#FFB6B6"/>
    <path d="M37.4991 134.483C37.3114 135.067 37.1563 135.659 37.0298 136.256L50.9877 155.11L59.5094 152.762L71.1736 149.548L71.1124 149.185L70.5002 145.509L70.2962 144.28L58.1381 146.583L54.9261 147.192L49.494 138.832H49.4899L46.3514 134.001C44.8658 131.122 42.6089 129.464 40.1764 129.203L37.4991 134.483H37.4991Z" fill="#A9E0FF"/>
    <path d="M116.423 194.835C117.784 194.835 118.888 193.731 118.888 192.369C118.888 191.006 117.784 189.902 116.423 189.902C115.061 189.902 113.958 191.006 113.958 192.369C113.958 193.731 115.061 194.835 116.423 194.835Z" fill="#E6E6E6"/>
    <path d="M184.085 279.777L179.991 279.777L178.044 263.977L184.086 263.977L184.085 279.777Z" fill="#FFB6B6"/>
    <path d="M170.059 279.684C169.932 279.899 169.865 280.592 169.865 280.842C169.865 281.61 170.487 282.232 171.254 282.232H183.932C184.456 282.232 184.88 281.808 184.88 281.284V280.756C184.88 280.756 185.507 279.169 184.216 277.212C184.216 277.212 182.611 278.744 180.213 276.345L179.506 275.063L174.387 278.809L171.55 279.158C170.929 279.235 170.379 279.146 170.06 279.684H170.059Z" fill="#2F2E41"/>
    <path d="M199.594 279.777L195.5 279.777L193.553 263.977L199.595 263.977L199.594 279.777Z" fill="#FFB6B6"/>
    <path d="M185.568 279.684C185.441 279.899 185.374 280.592 185.374 280.842C185.374 281.61 185.996 282.232 186.763 282.232H199.441C199.964 282.232 200.389 281.808 200.389 281.284V280.756C200.389 280.756 201.016 279.169 199.725 277.212C199.725 277.212 198.12 278.744 195.722 276.345L195.015 275.063L189.896 278.809L187.059 279.158C186.438 279.235 185.888 279.146 185.568 279.684H185.568Z" fill="#2F2E41"/>
    <path d="M176.195 184.953L176.104 272.697H186.829L191.894 207.812L192.039 272.697L201.95 272.581L209.623 197.941C209.623 197.941 210.656 190.148 207.401 186.165C204.147 182.182 176.195 184.953 176.195 184.953V184.953Z" fill="#2F2E41"/>
    <path d="M175.956 194.941C176.175 197.655 174.953 199.968 173.226 200.107C171.5 200.246 169.924 198.159 169.705 195.445C169.61 194.257 169.79 193.145 170.168 192.26L169.387 180.747L174.794 180.495L174.99 191.871C175.505 192.685 175.861 193.753 175.956 194.941Z" fill="#FFB6B6"/>
    <path d="M199.697 129.167L188.188 128.375L184.744 133.806L176.451 137.18V163.945C177.314 166.537 177.76 169.249 177.772 171.98C177.74 177.312 176.371 183.593 176.845 184.969C181.481 198.423 206.98 184.969 206.98 184.969L206.516 170.588L207.145 138.088L201.935 133.929L199.697 129.167Z" fill="#A9E0FF"/>
    <path d="M178.329 136.468L178.193 136.491C175.631 136.925 173.447 138.596 172.357 140.957C170.956 143.99 169 187.95 169 187.95C169 187.95 174.228 187.553 176.83 188.797C176.83 188.797 178.004 182.323 177.3 181.197C176.597 180.072 177.915 168.812 177.915 168.812C180.775 161.328 179.646 149.011 178.329 136.468Z" fill="#A9E0FF"/>
    <path d="M215.028 194.403C215.018 197.126 213.606 199.328 211.874 199.322C210.143 199.316 208.747 197.104 208.756 194.381C208.761 193.189 209.034 192.096 209.484 191.246L209.67 179.708L215.079 179.91L214.322 191.263C214.767 192.117 215.032 193.211 215.028 194.403H215.028Z" fill="#FFB6B6"/>
    <path d="M204.754 137.263L204.891 137.279C207.471 137.584 209.735 139.142 210.943 141.444C212.494 144.403 216.539 182.063 216.41 182.751C216.281 183.438 216.664 188.21 216.664 188.21C216.664 188.21 211.423 188.078 208.887 189.452L206.795 169.546L204.754 137.263Z" fill="#A9E0FF"/>
    <path d="M194.343 126.712C199.301 126.712 203.32 122.69 203.32 117.73C203.32 112.769 199.301 108.747 194.343 108.747C189.386 108.747 185.367 112.769 185.367 117.73C185.367 122.69 189.386 126.712 194.343 126.712Z" fill="#FFB6B6"/>
    <path d="M200.59 125.418C201.838 124.441 201.96 122.577 203.025 121.402C204.806 119.438 205.643 117.325 204.71 114.998C203.885 112.94 204.06 110.409 202.282 109.085C203.155 108.769 200.135 109.085 201.067 107.847C201.998 106.609 200.234 107.098 200.351 106.592C200.468 106.085 198.88 105.156 197.849 106.167C197.693 106.319 197.558 106.49 197.445 106.676C196.395 105.101 193.523 104.486 191.915 105.485C190.338 106.465 191.342 107.854 189.646 107.563C188.848 107.426 187.127 107.315 186.582 107.913C186.07 108.56 187.686 109.879 186.865 109.801C186.07 109.651 184.033 112.262 184.033 112.262L183.277 111.335C182.077 112.118 182.471 114.16 183.679 114.929C184.133 115.218 185.184 115.938 185.712 116.004C186.139 116.057 186.495 114.008 186.936 113.962C187.4 113.914 187.404 115.302 187.849 115.193C189.524 114.782 191.254 114.639 192.973 114.769C195.601 115.141 197.43 118.281 196.457 120.753C197.467 119.761 199.334 120.584 199.856 121.899C200.379 123.214 198.945 123.724 198.558 125.085" fill="#2F2E41"/>
</svg>